%FSLAX46Y46*%
G04 Gerber Fmt 4.6, Leading zero omitted, Abs format (unit mm)*
G04 Created by KiCad (PCBNEW (2014-10-11 BZR 5175)-product) date Fri 31 Oct 2014 19:34:31 GMT*
%MOMM*%
G01*
G04 APERTURE LIST*
%ADD10C,0.100000*%
%ADD11C,19.000000*%
%ADD12C,1.800000*%
%ADD13R,1.727200X1.727200*%
%ADD14O,1.727200X1.727200*%
%ADD15C,1.501140*%
%ADD16C,1.000760*%
G04 APERTURE END LIST*
D10*
G36*
X65672033Y-133443501D02*
X62136499Y-129907967D01*
X65672033Y-126372433D01*
X69207567Y-129907967D01*
X65672033Y-133443501D01*
X65672033Y-133443501D01*
G37*
G36*
X47357967Y-151757567D02*
X43822433Y-148222033D01*
X47357967Y-144686499D01*
X50893501Y-148222033D01*
X47357967Y-151757567D01*
X47357967Y-151757567D01*
G37*
D11*
X56515000Y-139065000D03*
D12*
X23050000Y-164120000D03*
X23050000Y-168620000D03*
D13*
X63500000Y-163830000D03*
D14*
X66040000Y-163830000D03*
X63500000Y-166370000D03*
X66040000Y-166370000D03*
X63500000Y-168910000D03*
X66040000Y-168910000D03*
D13*
X57150000Y-161290000D03*
D14*
X59690000Y-161290000D03*
X57150000Y-163830000D03*
X59690000Y-163830000D03*
X57150000Y-166370000D03*
X59690000Y-166370000D03*
X57150000Y-168910000D03*
X59690000Y-168910000D03*
X57150000Y-171450000D03*
X59690000Y-171450000D03*
D13*
X51435000Y-153035000D03*
D14*
X51435000Y-150495000D03*
X53975000Y-153035000D03*
X53975000Y-150495000D03*
X56515000Y-153035000D03*
X56515000Y-150495000D03*
X59055000Y-153035000D03*
X59055000Y-150495000D03*
X61595000Y-153035000D03*
X61595000Y-150495000D03*
D15*
X52070000Y-168810940D03*
X52070000Y-163929060D03*
D16*
X66789300Y-146685000D03*
X65290700Y-146685000D03*
M02*
