%FSLAX46Y46*%
G04 Gerber Fmt 4.6, Leading zero omitted, Abs format (unit mm)*
G04 Created by KiCad (PCBNEW (2014-10-11 BZR 5175)-product) date Fri 31 Oct 2014 19:34:31 GMT*
%MOMM*%
G01*
G04 APERTURE LIST*
%ADD10C,0.100000*%
%ADD11C,0.250000*%
%ADD12R,1.700000X1.300000*%
%ADD13C,1.800000*%
%ADD14R,1.200000X0.900000*%
%ADD15R,0.900000X1.200000*%
%ADD16R,1.198880X1.198880*%
%ADD17R,1.727200X1.727200*%
%ADD18O,1.727200X1.727200*%
%ADD19R,1.470660X0.419100*%
%ADD20R,0.508000X1.143000*%
%ADD21R,1.800860X2.499360*%
%ADD22C,1.501140*%
%ADD23R,1.270000X1.270000*%
%ADD24C,1.000760*%
G04 APERTURE END LIST*
D10*
D11*
X33528000Y-172212000D02*
X33528000Y-171196000D01*
X34036000Y-171704000D02*
X33020000Y-171704000D01*
X33528000Y-159512000D02*
X33528000Y-158496000D01*
X34036000Y-159004000D02*
X33020000Y-159004000D01*
X57814981Y-147701000D02*
G75*
G03X57814981Y-147701000I-283981J0D01*
G74*
G01*
X47349210Y-164973000D02*
G75*
G03X47349210Y-164973000I-359210J0D01*
G74*
G01*
X31115000Y-173990000D02*
X32385000Y-173990000D01*
X31750000Y-173355000D02*
X31750000Y-174625000D01*
X31115000Y-166370000D02*
X32385000Y-166370000D01*
X31750000Y-165735000D02*
X31750000Y-167005000D01*
X66114395Y-130797236D02*
G75*
G03X66114395Y-130797236I-254000J0D01*
G74*
G01*
X24487143Y-172886666D02*
X24534762Y-172934285D01*
X24582381Y-173077142D01*
X24582381Y-173172380D01*
X24534762Y-173315238D01*
X24439524Y-173410476D01*
X24344286Y-173458095D01*
X24153810Y-173505714D01*
X24010952Y-173505714D01*
X23820476Y-173458095D01*
X23725238Y-173410476D01*
X23630000Y-173315238D01*
X23582381Y-173172380D01*
X23582381Y-173077142D01*
X23630000Y-172934285D01*
X23677619Y-172886666D01*
X24582381Y-171934285D02*
X24582381Y-172505714D01*
X24582381Y-172220000D02*
X23582381Y-172220000D01*
X23725238Y-172315238D01*
X23820476Y-172410476D01*
X23868095Y-172505714D01*
X49887143Y-146216666D02*
X49934762Y-146264285D01*
X49982381Y-146407142D01*
X49982381Y-146502380D01*
X49934762Y-146645238D01*
X49839524Y-146740476D01*
X49744286Y-146788095D01*
X49553810Y-146835714D01*
X49410952Y-146835714D01*
X49220476Y-146788095D01*
X49125238Y-146740476D01*
X49030000Y-146645238D01*
X48982381Y-146502380D01*
X48982381Y-146407142D01*
X49030000Y-146264285D01*
X49077619Y-146216666D01*
X49077619Y-145835714D02*
X49030000Y-145788095D01*
X48982381Y-145692857D01*
X48982381Y-145454761D01*
X49030000Y-145359523D01*
X49077619Y-145311904D01*
X49172857Y-145264285D01*
X49268095Y-145264285D01*
X49410952Y-145311904D01*
X49982381Y-145883333D01*
X49982381Y-145264285D01*
X45553334Y-161647143D02*
X45505715Y-161694762D01*
X45362858Y-161742381D01*
X45267620Y-161742381D01*
X45124762Y-161694762D01*
X45029524Y-161599524D01*
X44981905Y-161504286D01*
X44934286Y-161313810D01*
X44934286Y-161170952D01*
X44981905Y-160980476D01*
X45029524Y-160885238D01*
X45124762Y-160790000D01*
X45267620Y-160742381D01*
X45362858Y-160742381D01*
X45505715Y-160790000D01*
X45553334Y-160837619D01*
X45886667Y-160742381D02*
X46505715Y-160742381D01*
X46172381Y-161123333D01*
X46315239Y-161123333D01*
X46410477Y-161170952D01*
X46458096Y-161218571D01*
X46505715Y-161313810D01*
X46505715Y-161551905D01*
X46458096Y-161647143D01*
X46410477Y-161694762D01*
X46315239Y-161742381D01*
X46029524Y-161742381D01*
X45934286Y-161694762D01*
X45886667Y-161647143D01*
X68937143Y-146216666D02*
X68984762Y-146264285D01*
X69032381Y-146407142D01*
X69032381Y-146502380D01*
X68984762Y-146645238D01*
X68889524Y-146740476D01*
X68794286Y-146788095D01*
X68603810Y-146835714D01*
X68460952Y-146835714D01*
X68270476Y-146788095D01*
X68175238Y-146740476D01*
X68080000Y-146645238D01*
X68032381Y-146502380D01*
X68032381Y-146407142D01*
X68080000Y-146264285D01*
X68127619Y-146216666D01*
X68365714Y-145359523D02*
X69032381Y-145359523D01*
X67984762Y-145597619D02*
X68699048Y-145835714D01*
X68699048Y-145216666D01*
X45553334Y-171807143D02*
X45505715Y-171854762D01*
X45362858Y-171902381D01*
X45267620Y-171902381D01*
X45124762Y-171854762D01*
X45029524Y-171759524D01*
X44981905Y-171664286D01*
X44934286Y-171473810D01*
X44934286Y-171330952D01*
X44981905Y-171140476D01*
X45029524Y-171045238D01*
X45124762Y-170950000D01*
X45267620Y-170902381D01*
X45362858Y-170902381D01*
X45505715Y-170950000D01*
X45553334Y-170997619D01*
X46458096Y-170902381D02*
X45981905Y-170902381D01*
X45934286Y-171378571D01*
X45981905Y-171330952D01*
X46077143Y-171283333D01*
X46315239Y-171283333D01*
X46410477Y-171330952D01*
X46458096Y-171378571D01*
X46505715Y-171473810D01*
X46505715Y-171711905D01*
X46458096Y-171807143D01*
X46410477Y-171854762D01*
X46315239Y-171902381D01*
X46077143Y-171902381D01*
X45981905Y-171854762D01*
X45934286Y-171807143D01*
X63857143Y-146216666D02*
X63904762Y-146264285D01*
X63952381Y-146407142D01*
X63952381Y-146502380D01*
X63904762Y-146645238D01*
X63809524Y-146740476D01*
X63714286Y-146788095D01*
X63523810Y-146835714D01*
X63380952Y-146835714D01*
X63190476Y-146788095D01*
X63095238Y-146740476D01*
X63000000Y-146645238D01*
X62952381Y-146502380D01*
X62952381Y-146407142D01*
X63000000Y-146264285D01*
X63047619Y-146216666D01*
X62952381Y-145359523D02*
X62952381Y-145550000D01*
X63000000Y-145645238D01*
X63047619Y-145692857D01*
X63190476Y-145788095D01*
X63380952Y-145835714D01*
X63761905Y-145835714D01*
X63857143Y-145788095D01*
X63904762Y-145740476D01*
X63952381Y-145645238D01*
X63952381Y-145454761D01*
X63904762Y-145359523D01*
X63857143Y-145311904D01*
X63761905Y-145264285D01*
X63523810Y-145264285D01*
X63428571Y-145311904D01*
X63380952Y-145359523D01*
X63333333Y-145454761D01*
X63333333Y-145645238D01*
X63380952Y-145740476D01*
X63428571Y-145788095D01*
X63523810Y-145835714D01*
X40473334Y-161647143D02*
X40425715Y-161694762D01*
X40282858Y-161742381D01*
X40187620Y-161742381D01*
X40044762Y-161694762D01*
X39949524Y-161599524D01*
X39901905Y-161504286D01*
X39854286Y-161313810D01*
X39854286Y-161170952D01*
X39901905Y-160980476D01*
X39949524Y-160885238D01*
X40044762Y-160790000D01*
X40187620Y-160742381D01*
X40282858Y-160742381D01*
X40425715Y-160790000D01*
X40473334Y-160837619D01*
X40806667Y-160742381D02*
X41473334Y-160742381D01*
X41044762Y-161742381D01*
X33472381Y-173458095D02*
X32472381Y-173458095D01*
X32472381Y-173220000D01*
X32520000Y-173077142D01*
X32615238Y-172981904D01*
X32710476Y-172934285D01*
X32900952Y-172886666D01*
X33043810Y-172886666D01*
X33234286Y-172934285D01*
X33329524Y-172981904D01*
X33424762Y-173077142D01*
X33472381Y-173220000D01*
X33472381Y-173458095D01*
X33472381Y-171934285D02*
X33472381Y-172505714D01*
X33472381Y-172220000D02*
X32472381Y-172220000D01*
X32615238Y-172315238D01*
X32710476Y-172410476D01*
X32758095Y-172505714D01*
X33472381Y-160758095D02*
X32472381Y-160758095D01*
X32472381Y-160520000D01*
X32520000Y-160377142D01*
X32615238Y-160281904D01*
X32710476Y-160234285D01*
X32900952Y-160186666D01*
X33043810Y-160186666D01*
X33234286Y-160234285D01*
X33329524Y-160281904D01*
X33424762Y-160377142D01*
X33472381Y-160520000D01*
X33472381Y-160758095D01*
X32805714Y-159329523D02*
X33472381Y-159329523D01*
X32424762Y-159567619D02*
X33139048Y-159805714D01*
X33139048Y-159186666D01*
X62761905Y-162377381D02*
X62761905Y-161377381D01*
X63142858Y-161377381D01*
X63238096Y-161425000D01*
X63285715Y-161472619D01*
X63333334Y-161567857D01*
X63333334Y-161710714D01*
X63285715Y-161805952D01*
X63238096Y-161853571D01*
X63142858Y-161901190D01*
X62761905Y-161901190D01*
X63666667Y-161377381D02*
X64285715Y-161377381D01*
X63952381Y-161758333D01*
X64095239Y-161758333D01*
X64190477Y-161805952D01*
X64238096Y-161853571D01*
X64285715Y-161948810D01*
X64285715Y-162186905D01*
X64238096Y-162282143D01*
X64190477Y-162329762D01*
X64095239Y-162377381D01*
X63809524Y-162377381D01*
X63714286Y-162329762D01*
X63666667Y-162282143D01*
X33472381Y-170346666D02*
X32996190Y-170680000D01*
X33472381Y-170918095D02*
X32472381Y-170918095D01*
X32472381Y-170537142D01*
X32520000Y-170441904D01*
X32567619Y-170394285D01*
X32662857Y-170346666D01*
X32805714Y-170346666D01*
X32900952Y-170394285D01*
X32948571Y-170441904D01*
X32996190Y-170537142D01*
X32996190Y-170918095D01*
X33472381Y-169394285D02*
X33472381Y-169965714D01*
X33472381Y-169680000D02*
X32472381Y-169680000D01*
X32615238Y-169775238D01*
X32710476Y-169870476D01*
X32758095Y-169965714D01*
X33472381Y-165266666D02*
X32996190Y-165600000D01*
X33472381Y-165838095D02*
X32472381Y-165838095D01*
X32472381Y-165457142D01*
X32520000Y-165361904D01*
X32567619Y-165314285D01*
X32662857Y-165266666D01*
X32805714Y-165266666D01*
X32900952Y-165314285D01*
X32948571Y-165361904D01*
X32996190Y-165457142D01*
X32996190Y-165838095D01*
X32567619Y-164885714D02*
X32520000Y-164838095D01*
X32472381Y-164742857D01*
X32472381Y-164504761D01*
X32520000Y-164409523D01*
X32567619Y-164361904D01*
X32662857Y-164314285D01*
X32758095Y-164314285D01*
X32900952Y-164361904D01*
X33472381Y-164933333D01*
X33472381Y-164314285D01*
X33472381Y-167806666D02*
X32996190Y-168140000D01*
X33472381Y-168378095D02*
X32472381Y-168378095D01*
X32472381Y-167997142D01*
X32520000Y-167901904D01*
X32567619Y-167854285D01*
X32662857Y-167806666D01*
X32805714Y-167806666D01*
X32900952Y-167854285D01*
X32948571Y-167901904D01*
X32996190Y-167997142D01*
X32996190Y-168378095D01*
X32472381Y-167473333D02*
X32472381Y-166854285D01*
X32853333Y-167187619D01*
X32853333Y-167044761D01*
X32900952Y-166949523D01*
X32948571Y-166901904D01*
X33043810Y-166854285D01*
X33281905Y-166854285D01*
X33377143Y-166901904D01*
X33424762Y-166949523D01*
X33472381Y-167044761D01*
X33472381Y-167330476D01*
X33424762Y-167425714D01*
X33377143Y-167473333D01*
X40473334Y-171902381D02*
X40140000Y-171426190D01*
X39901905Y-171902381D02*
X39901905Y-170902381D01*
X40282858Y-170902381D01*
X40378096Y-170950000D01*
X40425715Y-170997619D01*
X40473334Y-171092857D01*
X40473334Y-171235714D01*
X40425715Y-171330952D01*
X40378096Y-171378571D01*
X40282858Y-171426190D01*
X39901905Y-171426190D01*
X41330477Y-171235714D02*
X41330477Y-171902381D01*
X41092381Y-170854762D02*
X40854286Y-171569048D01*
X41473334Y-171569048D01*
X33472381Y-162726666D02*
X32996190Y-163060000D01*
X33472381Y-163298095D02*
X32472381Y-163298095D01*
X32472381Y-162917142D01*
X32520000Y-162821904D01*
X32567619Y-162774285D01*
X32662857Y-162726666D01*
X32805714Y-162726666D01*
X32900952Y-162774285D01*
X32948571Y-162821904D01*
X32996190Y-162917142D01*
X32996190Y-163298095D01*
X32472381Y-161821904D02*
X32472381Y-162298095D01*
X32948571Y-162345714D01*
X32900952Y-162298095D01*
X32853333Y-162202857D01*
X32853333Y-161964761D01*
X32900952Y-161869523D01*
X32948571Y-161821904D01*
X33043810Y-161774285D01*
X33281905Y-161774285D01*
X33377143Y-161821904D01*
X33424762Y-161869523D01*
X33472381Y-161964761D01*
X33472381Y-162202857D01*
X33424762Y-162298095D01*
X33377143Y-162345714D01*
X24582381Y-160186666D02*
X24106190Y-160520000D01*
X24582381Y-160758095D02*
X23582381Y-160758095D01*
X23582381Y-160377142D01*
X23630000Y-160281904D01*
X23677619Y-160234285D01*
X23772857Y-160186666D01*
X23915714Y-160186666D01*
X24010952Y-160234285D01*
X24058571Y-160281904D01*
X24106190Y-160377142D01*
X24106190Y-160758095D01*
X23582381Y-159329523D02*
X23582381Y-159520000D01*
X23630000Y-159615238D01*
X23677619Y-159662857D01*
X23820476Y-159758095D01*
X24010952Y-159805714D01*
X24391905Y-159805714D01*
X24487143Y-159758095D01*
X24534762Y-159710476D01*
X24582381Y-159615238D01*
X24582381Y-159424761D01*
X24534762Y-159329523D01*
X24487143Y-159281904D01*
X24391905Y-159234285D01*
X24153810Y-159234285D01*
X24058571Y-159281904D01*
X24010952Y-159329523D01*
X23963333Y-159424761D01*
X23963333Y-159615238D01*
X24010952Y-159710476D01*
X24058571Y-159758095D01*
X24153810Y-159805714D01*
X46807381Y-146216666D02*
X46331190Y-146550000D01*
X46807381Y-146788095D02*
X45807381Y-146788095D01*
X45807381Y-146407142D01*
X45855000Y-146311904D01*
X45902619Y-146264285D01*
X45997857Y-146216666D01*
X46140714Y-146216666D01*
X46235952Y-146264285D01*
X46283571Y-146311904D01*
X46331190Y-146407142D01*
X46331190Y-146788095D01*
X45807381Y-145883333D02*
X45807381Y-145216666D01*
X46807381Y-145645238D01*
X60833095Y-147407381D02*
X60833095Y-148216905D01*
X60880714Y-148312143D01*
X60928333Y-148359762D01*
X61023571Y-148407381D01*
X61214048Y-148407381D01*
X61309286Y-148359762D01*
X61356905Y-148312143D01*
X61404524Y-148216905D01*
X61404524Y-147407381D01*
X62404524Y-148407381D02*
X61833095Y-148407381D01*
X62118809Y-148407381D02*
X62118809Y-147407381D01*
X62023571Y-147550238D01*
X61928333Y-147645476D01*
X61833095Y-147693095D01*
X49347381Y-163536190D02*
X48347381Y-163536190D01*
X49252143Y-162488571D02*
X49299762Y-162536190D01*
X49347381Y-162679047D01*
X49347381Y-162774285D01*
X49299762Y-162917143D01*
X49204524Y-163012381D01*
X49109286Y-163060000D01*
X48918810Y-163107619D01*
X48775952Y-163107619D01*
X48585476Y-163060000D01*
X48490238Y-163012381D01*
X48395000Y-162917143D01*
X48347381Y-162774285D01*
X48347381Y-162679047D01*
X48395000Y-162536190D01*
X48442619Y-162488571D01*
X49347381Y-161536190D02*
X49347381Y-162107619D01*
X49347381Y-161821905D02*
X48347381Y-161821905D01*
X48490238Y-161917143D01*
X48585476Y-162012381D01*
X48633095Y-162107619D01*
X56411905Y-159837381D02*
X56411905Y-158837381D01*
X56792858Y-158837381D01*
X56888096Y-158885000D01*
X56935715Y-158932619D01*
X56983334Y-159027857D01*
X56983334Y-159170714D01*
X56935715Y-159265952D01*
X56888096Y-159313571D01*
X56792858Y-159361190D01*
X56411905Y-159361190D01*
X57935715Y-159837381D02*
X57364286Y-159837381D01*
X57650000Y-159837381D02*
X57650000Y-158837381D01*
X57554762Y-158980238D01*
X57459524Y-159075476D01*
X57364286Y-159123095D01*
X49982381Y-153773095D02*
X48982381Y-153773095D01*
X48982381Y-153392142D01*
X49030000Y-153296904D01*
X49077619Y-153249285D01*
X49172857Y-153201666D01*
X49315714Y-153201666D01*
X49410952Y-153249285D01*
X49458571Y-153296904D01*
X49506190Y-153392142D01*
X49506190Y-153773095D01*
X49077619Y-152820714D02*
X49030000Y-152773095D01*
X48982381Y-152677857D01*
X48982381Y-152439761D01*
X49030000Y-152344523D01*
X49077619Y-152296904D01*
X49172857Y-152249285D01*
X49268095Y-152249285D01*
X49410952Y-152296904D01*
X49982381Y-152868333D01*
X49982381Y-152249285D01*
X28392381Y-170918095D02*
X27392381Y-170918095D01*
X27392381Y-170680000D01*
X27440000Y-170537142D01*
X27535238Y-170441904D01*
X27630476Y-170394285D01*
X27820952Y-170346666D01*
X27963810Y-170346666D01*
X28154286Y-170394285D01*
X28249524Y-170441904D01*
X28344762Y-170537142D01*
X28392381Y-170680000D01*
X28392381Y-170918095D01*
X27487619Y-169965714D02*
X27440000Y-169918095D01*
X27392381Y-169822857D01*
X27392381Y-169584761D01*
X27440000Y-169489523D01*
X27487619Y-169441904D01*
X27582857Y-169394285D01*
X27678095Y-169394285D01*
X27820952Y-169441904D01*
X28392381Y-170013333D01*
X28392381Y-169394285D01*
X28392381Y-163298095D02*
X27392381Y-163298095D01*
X27392381Y-163060000D01*
X27440000Y-162917142D01*
X27535238Y-162821904D01*
X27630476Y-162774285D01*
X27820952Y-162726666D01*
X27963810Y-162726666D01*
X28154286Y-162774285D01*
X28249524Y-162821904D01*
X28344762Y-162917142D01*
X28392381Y-163060000D01*
X28392381Y-163298095D01*
X27392381Y-162393333D02*
X27392381Y-161774285D01*
X27773333Y-162107619D01*
X27773333Y-161964761D01*
X27820952Y-161869523D01*
X27868571Y-161821904D01*
X27963810Y-161774285D01*
X28201905Y-161774285D01*
X28297143Y-161821904D01*
X28344762Y-161869523D01*
X28392381Y-161964761D01*
X28392381Y-162250476D01*
X28344762Y-162345714D01*
X28297143Y-162393333D01*
X48347381Y-170989524D02*
X49347381Y-170322857D01*
X48347381Y-170322857D02*
X49347381Y-170989524D01*
X48442619Y-169989524D02*
X48395000Y-169941905D01*
X48347381Y-169846667D01*
X48347381Y-169608571D01*
X48395000Y-169513333D01*
X48442619Y-169465714D01*
X48537857Y-169418095D01*
X48633095Y-169418095D01*
X48775952Y-169465714D01*
X49347381Y-170037143D01*
X49347381Y-169418095D01*
X65230476Y-144232381D02*
X65897143Y-145232381D01*
X65897143Y-144232381D02*
X65230476Y-145232381D01*
X66801905Y-145232381D02*
X66230476Y-145232381D01*
X66516190Y-145232381D02*
X66516190Y-144232381D01*
X66420952Y-144375238D01*
X66325714Y-144470476D01*
X66230476Y-144518095D01*
X60158334Y-130532143D02*
X60110715Y-130579762D01*
X59967858Y-130627381D01*
X59872620Y-130627381D01*
X59729762Y-130579762D01*
X59634524Y-130484524D01*
X59586905Y-130389286D01*
X59539286Y-130198810D01*
X59539286Y-130055952D01*
X59586905Y-129865476D01*
X59634524Y-129770238D01*
X59729762Y-129675000D01*
X59872620Y-129627381D01*
X59967858Y-129627381D01*
X60110715Y-129675000D01*
X60158334Y-129722619D01*
X60729762Y-130055952D02*
X60634524Y-130008333D01*
X60586905Y-129960714D01*
X60539286Y-129865476D01*
X60539286Y-129817857D01*
X60586905Y-129722619D01*
X60634524Y-129675000D01*
X60729762Y-129627381D01*
X60920239Y-129627381D01*
X61015477Y-129675000D01*
X61063096Y-129722619D01*
X61110715Y-129817857D01*
X61110715Y-129865476D01*
X61063096Y-129960714D01*
X61015477Y-130008333D01*
X60920239Y-130055952D01*
X60729762Y-130055952D01*
X60634524Y-130103571D01*
X60586905Y-130151190D01*
X60539286Y-130246429D01*
X60539286Y-130436905D01*
X60586905Y-130532143D01*
X60634524Y-130579762D01*
X60729762Y-130627381D01*
X60920239Y-130627381D01*
X61015477Y-130579762D01*
X61063096Y-130532143D01*
X61110715Y-130436905D01*
X61110715Y-130246429D01*
X61063096Y-130151190D01*
X61015477Y-130103571D01*
X60920239Y-130055952D01*
X50633334Y-138247381D02*
X50300000Y-137771190D01*
X50061905Y-138247381D02*
X50061905Y-137247381D01*
X50442858Y-137247381D01*
X50538096Y-137295000D01*
X50585715Y-137342619D01*
X50633334Y-137437857D01*
X50633334Y-137580714D01*
X50585715Y-137675952D01*
X50538096Y-137723571D01*
X50442858Y-137771190D01*
X50061905Y-137771190D01*
X51204762Y-137675952D02*
X51109524Y-137628333D01*
X51061905Y-137580714D01*
X51014286Y-137485476D01*
X51014286Y-137437857D01*
X51061905Y-137342619D01*
X51109524Y-137295000D01*
X51204762Y-137247381D01*
X51395239Y-137247381D01*
X51490477Y-137295000D01*
X51538096Y-137342619D01*
X51585715Y-137437857D01*
X51585715Y-137485476D01*
X51538096Y-137580714D01*
X51490477Y-137628333D01*
X51395239Y-137675952D01*
X51204762Y-137675952D01*
X51109524Y-137723571D01*
X51061905Y-137771190D01*
X51014286Y-137866429D01*
X51014286Y-138056905D01*
X51061905Y-138152143D01*
X51109524Y-138199762D01*
X51204762Y-138247381D01*
X51395239Y-138247381D01*
X51490477Y-138199762D01*
X51538096Y-138152143D01*
X51585715Y-138056905D01*
X51585715Y-137866429D01*
X51538096Y-137771190D01*
X51490477Y-137723571D01*
X51395239Y-137675952D01*
X62063334Y-138247381D02*
X61730000Y-137771190D01*
X61491905Y-138247381D02*
X61491905Y-137247381D01*
X61872858Y-137247381D01*
X61968096Y-137295000D01*
X62015715Y-137342619D01*
X62063334Y-137437857D01*
X62063334Y-137580714D01*
X62015715Y-137675952D01*
X61968096Y-137723571D01*
X61872858Y-137771190D01*
X61491905Y-137771190D01*
X62539524Y-138247381D02*
X62730000Y-138247381D01*
X62825239Y-138199762D01*
X62872858Y-138152143D01*
X62968096Y-138009286D01*
X63015715Y-137818810D01*
X63015715Y-137437857D01*
X62968096Y-137342619D01*
X62920477Y-137295000D01*
X62825239Y-137247381D01*
X62634762Y-137247381D01*
X62539524Y-137295000D01*
X62491905Y-137342619D01*
X62444286Y-137437857D01*
X62444286Y-137675952D01*
X62491905Y-137771190D01*
X62539524Y-137818810D01*
X62634762Y-137866429D01*
X62825239Y-137866429D01*
X62920477Y-137818810D01*
X62968096Y-137771190D01*
X63015715Y-137675952D01*
X65888477Y-132206129D02*
X65316057Y-132778549D01*
X65282385Y-132879564D01*
X65282385Y-132946907D01*
X65316057Y-133047922D01*
X65450745Y-133182610D01*
X65551760Y-133216282D01*
X65619103Y-133216282D01*
X65720118Y-133182610D01*
X66292538Y-132610190D01*
X66528240Y-132980579D02*
X66595584Y-132980579D01*
X66696599Y-133014251D01*
X66864958Y-133182610D01*
X66898630Y-133283625D01*
X66898630Y-133350969D01*
X66864958Y-133451984D01*
X66797615Y-133519327D01*
X66662928Y-133586671D01*
X65854805Y-133586671D01*
X66292538Y-134024404D01*
%LPC*%
D12*
X25400000Y-162870000D03*
X25400000Y-165370000D03*
X25170000Y-167370000D03*
X25400000Y-169870000D03*
D13*
X23050000Y-164120000D03*
X23050000Y-168620000D03*
D14*
X27770000Y-172720000D03*
X25570000Y-172720000D03*
D15*
X51435000Y-147150000D03*
X51435000Y-144950000D03*
D14*
X46820000Y-160020000D03*
X44620000Y-160020000D03*
D15*
X67945000Y-150325000D03*
X67945000Y-148125000D03*
D14*
X44620000Y-172720000D03*
X46820000Y-172720000D03*
D15*
X64135000Y-150325000D03*
X64135000Y-148125000D03*
D14*
X39540000Y-160020000D03*
X41740000Y-160020000D03*
D16*
X34510980Y-172720000D03*
X36609020Y-172720000D03*
X34510980Y-160020000D03*
X36609020Y-160020000D03*
D17*
X63500000Y-163830000D03*
D18*
X66040000Y-163830000D03*
X63500000Y-166370000D03*
X66040000Y-166370000D03*
X63500000Y-168910000D03*
X66040000Y-168910000D03*
D14*
X34460000Y-170180000D03*
X36660000Y-170180000D03*
X36660000Y-165100000D03*
X34460000Y-165100000D03*
X36660000Y-167640000D03*
X34460000Y-167640000D03*
X41740000Y-172720000D03*
X39540000Y-172720000D03*
X34460000Y-162560000D03*
X36660000Y-162560000D03*
X25570000Y-160020000D03*
X27770000Y-160020000D03*
D15*
X48260000Y-144950000D03*
X48260000Y-147150000D03*
D19*
X59314080Y-143835120D03*
X59314080Y-143184880D03*
X59314080Y-142534640D03*
X59314080Y-141884400D03*
X53721000Y-145775680D03*
X59314080Y-145785840D03*
X59314080Y-145135600D03*
X59314080Y-144485360D03*
X53715920Y-141234160D03*
X53715920Y-141884400D03*
X53715920Y-142534640D03*
X53715920Y-143184880D03*
X53715920Y-143835120D03*
X53715920Y-144485360D03*
X59314080Y-141234160D03*
X53721000Y-145135600D03*
X59314080Y-146436080D03*
X59314080Y-140583920D03*
X53715920Y-140583920D03*
X53715920Y-146436080D03*
X59314080Y-147083780D03*
X59314080Y-139936220D03*
X53715920Y-139936220D03*
X53715920Y-147083780D03*
X59314080Y-147734020D03*
X59314080Y-139285980D03*
X53715920Y-139285980D03*
X53715920Y-147734020D03*
D20*
X46990000Y-163195000D03*
X45720000Y-163195000D03*
X44450000Y-163195000D03*
X43180000Y-163195000D03*
X41910000Y-163195000D03*
X40640000Y-163195000D03*
X39370000Y-163195000D03*
X39370000Y-169545000D03*
X40640000Y-169545000D03*
X43180000Y-169545000D03*
X44450000Y-169545000D03*
X45720000Y-169545000D03*
X46990000Y-169545000D03*
X41910000Y-169545000D03*
D17*
X57150000Y-161290000D03*
D18*
X59690000Y-161290000D03*
X57150000Y-163830000D03*
X59690000Y-163830000D03*
X57150000Y-166370000D03*
X59690000Y-166370000D03*
X57150000Y-168910000D03*
X59690000Y-168910000D03*
X57150000Y-171450000D03*
X59690000Y-171450000D03*
D17*
X51435000Y-153035000D03*
D18*
X51435000Y-150495000D03*
X53975000Y-153035000D03*
X53975000Y-150495000D03*
X56515000Y-153035000D03*
X56515000Y-150495000D03*
X59055000Y-153035000D03*
X59055000Y-150495000D03*
X61595000Y-153035000D03*
X61595000Y-150495000D03*
D21*
X30480000Y-172178980D03*
X30480000Y-168181020D03*
X30480000Y-164558980D03*
X30480000Y-160561020D03*
D22*
X52070000Y-168810940D03*
X52070000Y-163929060D03*
D23*
X52070000Y-172085000D03*
X52070000Y-160655000D03*
D24*
X66789300Y-146685000D03*
X65290700Y-146685000D03*
D23*
X66040000Y-153035000D03*
D14*
X61425000Y-128270000D03*
X59225000Y-128270000D03*
X57955000Y-137795000D03*
X60155000Y-137795000D03*
X55075000Y-137795000D03*
X52875000Y-137795000D03*
D10*
G36*
X67191269Y-132340044D02*
X66293243Y-131442018D01*
X66562651Y-131172610D01*
X67460677Y-132070636D01*
X67191269Y-132340044D01*
X67191269Y-132340044D01*
G37*
G36*
X67651058Y-131880255D02*
X66753032Y-130982229D01*
X67022440Y-130712821D01*
X67920466Y-131610847D01*
X67651058Y-131880255D01*
X67651058Y-131880255D01*
G37*
G36*
X68110847Y-131420466D02*
X67212821Y-130522440D01*
X67482229Y-130253032D01*
X68380255Y-131151058D01*
X68110847Y-131420466D01*
X68110847Y-131420466D01*
G37*
G36*
X68570636Y-130960677D02*
X67672610Y-130062651D01*
X67942018Y-129793243D01*
X68840044Y-130691269D01*
X68570636Y-130960677D01*
X68570636Y-130960677D01*
G37*
G36*
X65517349Y-127907390D02*
X64619323Y-127009364D01*
X64888731Y-126739956D01*
X65786757Y-127637982D01*
X65517349Y-127907390D01*
X65517349Y-127907390D01*
G37*
G36*
X65057560Y-128367179D02*
X64159534Y-127469153D01*
X64428942Y-127199745D01*
X65326968Y-128097771D01*
X65057560Y-128367179D01*
X65057560Y-128367179D01*
G37*
G36*
X64597771Y-128826968D02*
X63699745Y-127928942D01*
X63969153Y-127659534D01*
X64867179Y-128557560D01*
X64597771Y-128826968D01*
X64597771Y-128826968D01*
G37*
G36*
X64137982Y-129286757D02*
X63239956Y-128388731D01*
X63509364Y-128119323D01*
X64407390Y-129017349D01*
X64137982Y-129286757D01*
X64137982Y-129286757D01*
G37*
M02*
