%FSLAX46Y46*%
G04 Gerber Fmt 4.6, Leading zero omitted, Abs format (unit mm)*
G04 Created by KiCad (PCBNEW (2014-10-11 BZR 5175)-product) date Fri 31 Oct 2014 19:34:31 GMT*
%MOMM*%
G01*
G04 APERTURE LIST*
%ADD10C,0.100000*%
%ADD11C,10.000000*%
%ADD12C,1.800000*%
%ADD13R,1.727200X1.727200*%
%ADD14O,1.727200X1.727200*%
%ADD15C,1.501140*%
%ADD16C,1.000760*%
%ADD17C,0.800000*%
%ADD18C,0.400000*%
%ADD19C,0.200000*%
G04 APERTURE END LIST*
D10*
G36*
X65672033Y-133443501D02*
X62136499Y-129907967D01*
X65672033Y-126372433D01*
X69207567Y-129907967D01*
X65672033Y-133443501D01*
X65672033Y-133443501D01*
G37*
G36*
X47357967Y-151757567D02*
X43822433Y-148222033D01*
X47357967Y-144686499D01*
X50893501Y-148222033D01*
X47357967Y-151757567D01*
X47357967Y-151757567D01*
G37*
D11*
X56515000Y-139065000D03*
D12*
X23050000Y-164120000D03*
X23050000Y-168620000D03*
D13*
X63500000Y-163830000D03*
D14*
X66040000Y-163830000D03*
X63500000Y-166370000D03*
X66040000Y-166370000D03*
X63500000Y-168910000D03*
X66040000Y-168910000D03*
D13*
X57150000Y-161290000D03*
D14*
X59690000Y-161290000D03*
X57150000Y-163830000D03*
X59690000Y-163830000D03*
X57150000Y-166370000D03*
X59690000Y-166370000D03*
X57150000Y-168910000D03*
X59690000Y-168910000D03*
X57150000Y-171450000D03*
X59690000Y-171450000D03*
D13*
X51435000Y-153035000D03*
D14*
X51435000Y-150495000D03*
X53975000Y-153035000D03*
X53975000Y-150495000D03*
X56515000Y-153035000D03*
X56515000Y-150495000D03*
X59055000Y-153035000D03*
X59055000Y-150495000D03*
X61595000Y-153035000D03*
X61595000Y-150495000D03*
D15*
X52070000Y-168810940D03*
X52070000Y-163929060D03*
D16*
X66789300Y-146685000D03*
X65290700Y-146685000D03*
D17*
X57150000Y-128270000D03*
X60325000Y-133350000D03*
X50165000Y-160655000D03*
X50165000Y-172085000D03*
X51435000Y-143510000D03*
X66040000Y-150495000D03*
X38100000Y-161290000D03*
X44450000Y-161290000D03*
X44450000Y-171450000D03*
X61595000Y-146050000D03*
X55880000Y-172720000D03*
X62865000Y-130175000D03*
X66675000Y-143510000D03*
X51435000Y-148590000D03*
X48260000Y-148590000D03*
X45085000Y-147955000D03*
X32461020Y-160561020D03*
X32385000Y-172085000D03*
X45720000Y-161925000D03*
X38100000Y-171450000D03*
X43180000Y-170815000D03*
X60960000Y-156845000D03*
D18*
X56515000Y-139065000D02*
X56515000Y-137160000D01*
X56515000Y-137160000D02*
X60325000Y-133350000D01*
X55880000Y-172720000D02*
X60960000Y-172720000D01*
X61595000Y-165735000D02*
X63500000Y-163830000D01*
X61595000Y-172085000D02*
X61595000Y-165735000D01*
X61595000Y-172085000D02*
X60960000Y-172720000D01*
X62865000Y-130175000D02*
X65405000Y-130175000D01*
X65405000Y-130175000D02*
X65672033Y-129907967D01*
X56515000Y-150495000D02*
X56515000Y-149225000D01*
X65672033Y-129907967D02*
X66675000Y-130910934D01*
X66675000Y-130910934D02*
X66675000Y-143510000D01*
X66675000Y-143510000D02*
X60960000Y-149225000D01*
X60960000Y-149225000D02*
X56515000Y-149225000D01*
X51435000Y-149225000D02*
X48360934Y-149225000D01*
X56515000Y-149225000D02*
X55245000Y-149225000D01*
X55245000Y-149225000D02*
X51435000Y-149225000D01*
X48360934Y-149225000D02*
X47357967Y-148222033D01*
X51435000Y-148590000D02*
X51435000Y-149225000D01*
X48260000Y-147320000D02*
X47357967Y-148222033D01*
X48260000Y-146685000D02*
X48260000Y-147320000D01*
X47892033Y-148222033D02*
X47357967Y-148222033D01*
X48260000Y-148590000D02*
X47892033Y-148222033D01*
X65037033Y-129907967D02*
X65672033Y-129907967D01*
X45352033Y-148222033D02*
X47357967Y-148222033D01*
X45085000Y-147955000D02*
X45352033Y-148222033D01*
X32385000Y-160637040D02*
X32385000Y-172085000D01*
X32461020Y-160561020D02*
X32385000Y-160637040D01*
X32385000Y-172085000D02*
X34290000Y-173990000D01*
X34290000Y-173990000D02*
X62865000Y-173990000D01*
X62865000Y-173990000D02*
X67310000Y-169545000D01*
X67310000Y-169545000D02*
X67310000Y-165100000D01*
X67310000Y-165100000D02*
X66040000Y-163830000D01*
X45720000Y-161925000D02*
X52070000Y-168275000D01*
X52070000Y-168275000D02*
X52070000Y-168810940D01*
X62230000Y-156845000D02*
X62230000Y-155575000D01*
X62230000Y-160655000D02*
X62230000Y-156845000D01*
X62230000Y-163195000D02*
X62230000Y-160655000D01*
X60960000Y-164465000D02*
X62230000Y-163195000D01*
X60960000Y-169545000D02*
X60960000Y-164465000D01*
X60325000Y-170180000D02*
X60960000Y-169545000D01*
X58420000Y-170180000D02*
X60325000Y-170180000D01*
X57150000Y-168910000D02*
X58420000Y-170180000D01*
X62230000Y-155575000D02*
X59690000Y-153035000D01*
X59690000Y-153035000D02*
X59055000Y-153035000D01*
X59690000Y-156845000D02*
X59690000Y-155575000D01*
X57785000Y-152400000D02*
X57785000Y-153670000D01*
X55245000Y-151765000D02*
X57150000Y-151765000D01*
X53975000Y-153035000D02*
X55245000Y-151765000D01*
X58420000Y-154305000D02*
X59690000Y-155575000D01*
X57785000Y-153670000D02*
X58420000Y-154305000D01*
X58420000Y-162560000D02*
X58420000Y-160655000D01*
X58420000Y-162560000D02*
X58420000Y-163830000D01*
X58420000Y-160655000D02*
X59690000Y-159385000D01*
X59690000Y-159385000D02*
X59690000Y-156845000D01*
X57785000Y-152400000D02*
X57150000Y-151765000D01*
X38100000Y-171450000D02*
X40005000Y-173355000D01*
X40005000Y-173355000D02*
X44450000Y-173355000D01*
X57150000Y-163830000D02*
X58420000Y-163830000D01*
X53975000Y-173355000D02*
X44450000Y-173355000D01*
X55880000Y-168910000D02*
X55880000Y-171450000D01*
X55880000Y-171450000D02*
X53975000Y-173355000D01*
X55880000Y-168275000D02*
X56515000Y-167640000D01*
X56515000Y-167640000D02*
X57785000Y-167640000D01*
X57785000Y-167640000D02*
X58420000Y-167005000D01*
X58420000Y-167005000D02*
X58420000Y-165100000D01*
X55880000Y-168910000D02*
X55880000Y-168275000D01*
X58420000Y-165100000D02*
X58420000Y-163830000D01*
X58420000Y-156210000D02*
X57150000Y-154940000D01*
X52705000Y-154305000D02*
X53340000Y-154940000D01*
X53340000Y-154940000D02*
X57150000Y-154940000D01*
X52705000Y-154305000D02*
X51435000Y-153035000D01*
X58420000Y-156845000D02*
X58420000Y-156210000D01*
X57785000Y-158750000D02*
X58420000Y-158115000D01*
X58420000Y-158115000D02*
X58420000Y-156845000D01*
X57150000Y-158750000D02*
X57785000Y-158750000D01*
X57150000Y-161290000D02*
X57150000Y-158750000D01*
X54610000Y-158750000D02*
X43815000Y-158750000D01*
X43180000Y-159385000D02*
X43815000Y-158750000D01*
X43180000Y-170815000D02*
X43180000Y-159385000D01*
X54610000Y-158750000D02*
X57150000Y-158750000D01*
X60960000Y-162560000D02*
X59690000Y-163830000D01*
X60960000Y-162560000D02*
X60960000Y-159385000D01*
X60960000Y-156845000D02*
X60960000Y-159385000D01*
D19*
G36*
X69700000Y-172077665D02*
X69641684Y-172672417D01*
X69471086Y-173237463D01*
X69193987Y-173758611D01*
X68820941Y-174216010D01*
X68366157Y-174592241D01*
X67846957Y-174872972D01*
X67283113Y-175047510D01*
X66689047Y-175109950D01*
X66674766Y-175110000D01*
X24250051Y-175110000D01*
X24250051Y-168502334D01*
X24250051Y-164002334D01*
X24204342Y-163771484D01*
X24114664Y-163553908D01*
X23984433Y-163357895D01*
X23818610Y-163190911D01*
X23623511Y-163059314D01*
X23406567Y-162968120D01*
X23176041Y-162920800D01*
X22940715Y-162919157D01*
X22709551Y-162963253D01*
X22491355Y-163051410D01*
X22294437Y-163180270D01*
X22126299Y-163344923D01*
X21993344Y-163539099D01*
X21900637Y-163755401D01*
X21851709Y-163985590D01*
X21848423Y-164220899D01*
X21890905Y-164452365D01*
X21977536Y-164671171D01*
X22105018Y-164868984D01*
X22268493Y-165038267D01*
X22461736Y-165172575D01*
X22677385Y-165266790D01*
X22907228Y-165317324D01*
X23142508Y-165322252D01*
X23374265Y-165281387D01*
X23593671Y-165196285D01*
X23792368Y-165070188D01*
X23962789Y-164907898D01*
X24098442Y-164715598D01*
X24194160Y-164500612D01*
X24246298Y-164271128D01*
X24250051Y-164002334D01*
X24250051Y-168502334D01*
X24204342Y-168271484D01*
X24114664Y-168053908D01*
X23984433Y-167857895D01*
X23818610Y-167690911D01*
X23623511Y-167559314D01*
X23406567Y-167468120D01*
X23176041Y-167420800D01*
X22940715Y-167419157D01*
X22709551Y-167463253D01*
X22491355Y-167551410D01*
X22294437Y-167680270D01*
X22126299Y-167844923D01*
X21993344Y-168039099D01*
X21900637Y-168255401D01*
X21851709Y-168485590D01*
X21848423Y-168720899D01*
X21890905Y-168952365D01*
X21977536Y-169171171D01*
X22105018Y-169368984D01*
X22268493Y-169538267D01*
X22461736Y-169672575D01*
X22677385Y-169766790D01*
X22907228Y-169817324D01*
X23142508Y-169822252D01*
X23374265Y-169781387D01*
X23593671Y-169696285D01*
X23792368Y-169570188D01*
X23962789Y-169407898D01*
X24098442Y-169215598D01*
X24194160Y-169000612D01*
X24246298Y-168771128D01*
X24250051Y-168502334D01*
X24250051Y-175110000D01*
X23502334Y-175110000D01*
X22907582Y-175051684D01*
X22342536Y-174881086D01*
X21821388Y-174603987D01*
X21363989Y-174230941D01*
X20987758Y-173776157D01*
X20707027Y-173256957D01*
X20532489Y-172693113D01*
X20470049Y-172099047D01*
X20470000Y-172085000D01*
X20470000Y-172084766D01*
X20470000Y-160662334D01*
X20528315Y-160067581D01*
X20698913Y-159502536D01*
X20976012Y-158981388D01*
X21349060Y-158523986D01*
X21803842Y-158147758D01*
X22323042Y-157867027D01*
X22886886Y-157692489D01*
X23480953Y-157630049D01*
X23495000Y-157630000D01*
X23495233Y-157630000D01*
X49530000Y-157630000D01*
X56515000Y-157630000D01*
X56515028Y-157629997D01*
X56515508Y-157629999D01*
X56519941Y-157629984D01*
X56526472Y-157629321D01*
X56533029Y-157629367D01*
X56535113Y-157629163D01*
X56658364Y-157616208D01*
X56671656Y-157613479D01*
X56685035Y-157610927D01*
X56687040Y-157610322D01*
X56687041Y-157610321D01*
X56805428Y-157573675D01*
X56817978Y-157568398D01*
X56830566Y-157563313D01*
X56832415Y-157562330D01*
X56941430Y-157503386D01*
X56952697Y-157495786D01*
X56964077Y-157488339D01*
X56965700Y-157487016D01*
X57061190Y-157408020D01*
X57070777Y-157398365D01*
X57080483Y-157388861D01*
X57081818Y-157387248D01*
X57160146Y-157291209D01*
X57167662Y-157279895D01*
X57175351Y-157268667D01*
X57176346Y-157266825D01*
X57176347Y-157266825D01*
X57234529Y-157157401D01*
X57239710Y-157144828D01*
X57245065Y-157132335D01*
X57245684Y-157130335D01*
X57245685Y-157130335D01*
X57281505Y-157011694D01*
X57284148Y-156998345D01*
X57286972Y-156985058D01*
X57287190Y-156982978D01*
X57287191Y-156982977D01*
X57287191Y-156982976D01*
X57299284Y-156859637D01*
X57299284Y-156853089D01*
X57299991Y-156846586D01*
X57299999Y-156844492D01*
X57299984Y-156840059D01*
X57299321Y-156833527D01*
X57299367Y-156826971D01*
X57299163Y-156824887D01*
X57286208Y-156701636D01*
X57283480Y-156688349D01*
X57280927Y-156674965D01*
X57280322Y-156672960D01*
X57280321Y-156672959D01*
X57243675Y-156554572D01*
X57238398Y-156542021D01*
X57233313Y-156529434D01*
X57232330Y-156527585D01*
X57232330Y-156527584D01*
X57173386Y-156418570D01*
X57165797Y-156407319D01*
X57158339Y-156395922D01*
X57157016Y-156394300D01*
X57157016Y-156394299D01*
X57078020Y-156298810D01*
X57068401Y-156289258D01*
X57058861Y-156279516D01*
X57057247Y-156278181D01*
X56961209Y-156199854D01*
X56949854Y-156192309D01*
X56938666Y-156184649D01*
X56936825Y-156183653D01*
X56827401Y-156125471D01*
X56814800Y-156120277D01*
X56802335Y-156114935D01*
X56800335Y-156114315D01*
X56681694Y-156078495D01*
X56668345Y-156075851D01*
X56655058Y-156073028D01*
X56652979Y-156072809D01*
X56652977Y-156072809D01*
X56652975Y-156072809D01*
X56529637Y-156060716D01*
X56523344Y-156060716D01*
X56517094Y-156060015D01*
X56515000Y-156060000D01*
X48902334Y-156060000D01*
X47814227Y-155953310D01*
X46774617Y-155639433D01*
X45815773Y-155129607D01*
X44974215Y-154443249D01*
X44281999Y-153606502D01*
X43765495Y-152651248D01*
X43444367Y-151613851D01*
X43330111Y-150526778D01*
X43330000Y-150495000D01*
X43330000Y-150494764D01*
X43330000Y-146692334D01*
X43726933Y-142644095D01*
X44900485Y-138757104D01*
X46806672Y-135172086D01*
X49372889Y-132025593D01*
X52501392Y-129437470D01*
X56073013Y-127506301D01*
X59951720Y-126305641D01*
X63996828Y-125880483D01*
X64127925Y-125880025D01*
X65215773Y-125986689D01*
X65564892Y-126092094D01*
X65529930Y-126106577D01*
X65480795Y-126139407D01*
X65439008Y-126181194D01*
X61903474Y-129716728D01*
X61870643Y-129765863D01*
X61848028Y-129820460D01*
X61836499Y-129878420D01*
X61836499Y-129937514D01*
X61848028Y-129995473D01*
X61870643Y-130050070D01*
X61903473Y-130099205D01*
X61945260Y-130140992D01*
X62199159Y-130394891D01*
X62239396Y-130496517D01*
X62313760Y-130611907D01*
X62409121Y-130710656D01*
X62521846Y-130789002D01*
X62647641Y-130843961D01*
X62648394Y-130844126D01*
X65480794Y-133676526D01*
X65529929Y-133709357D01*
X65584526Y-133731972D01*
X65642486Y-133743501D01*
X65701580Y-133743501D01*
X65759539Y-133731972D01*
X65814136Y-133709357D01*
X65863271Y-133676527D01*
X65905058Y-133634740D01*
X66175000Y-133364798D01*
X66175000Y-143019850D01*
X66136174Y-143057872D01*
X66058617Y-143171141D01*
X66004538Y-143297317D01*
X65975997Y-143431594D01*
X65975001Y-143502891D01*
X60752893Y-148725000D01*
X56515000Y-148725000D01*
X55245000Y-148725000D01*
X52122198Y-148725000D01*
X52132841Y-148678158D01*
X52135030Y-148521361D01*
X52108366Y-148386699D01*
X52056054Y-148259780D01*
X51980086Y-148145439D01*
X51883356Y-148048031D01*
X51769548Y-147971267D01*
X51642997Y-147918070D01*
X51508524Y-147890466D01*
X51371250Y-147889508D01*
X51236405Y-147915231D01*
X51109124Y-147966656D01*
X51080874Y-147985142D01*
X47549206Y-144453474D01*
X47500071Y-144420643D01*
X47445474Y-144398028D01*
X47387514Y-144386499D01*
X47328420Y-144386499D01*
X47270461Y-144398028D01*
X47215864Y-144420643D01*
X47166729Y-144453473D01*
X47124942Y-144495260D01*
X43589408Y-148030794D01*
X43556577Y-148079929D01*
X43533962Y-148134526D01*
X43522433Y-148192486D01*
X43522433Y-148251580D01*
X43533962Y-148309539D01*
X43556577Y-148364136D01*
X43589407Y-148413271D01*
X43631194Y-148455058D01*
X47166728Y-151990592D01*
X47215863Y-152023423D01*
X47270460Y-152046038D01*
X47328420Y-152057567D01*
X47387514Y-152057567D01*
X47445473Y-152046038D01*
X47500070Y-152023423D01*
X47549205Y-151990593D01*
X47590992Y-151948806D01*
X49814798Y-149725000D01*
X50563414Y-149725000D01*
X50464702Y-149844323D01*
X50356690Y-150044087D01*
X50289536Y-150261026D01*
X50265798Y-150486877D01*
X50286381Y-150713037D01*
X50350499Y-150930892D01*
X50455711Y-151132145D01*
X50598010Y-151309128D01*
X50771974Y-151455102D01*
X50970979Y-151564506D01*
X51187444Y-151633173D01*
X51413124Y-151658487D01*
X51429370Y-151658600D01*
X51440630Y-151658600D01*
X51666641Y-151636439D01*
X51884043Y-151570802D01*
X52084556Y-151464187D01*
X52260542Y-151320657D01*
X52405298Y-151145677D01*
X52513310Y-150945913D01*
X52580464Y-150728974D01*
X52604202Y-150503123D01*
X52583619Y-150276963D01*
X52519501Y-150059108D01*
X52414289Y-149857855D01*
X52307470Y-149725000D01*
X53103414Y-149725000D01*
X53004702Y-149844323D01*
X52896690Y-150044087D01*
X52829536Y-150261026D01*
X52805798Y-150486877D01*
X52826381Y-150713037D01*
X52890499Y-150930892D01*
X52995711Y-151132145D01*
X53138010Y-151309128D01*
X53311974Y-151455102D01*
X53510979Y-151564506D01*
X53727444Y-151633173D01*
X53953124Y-151658487D01*
X53969370Y-151658600D01*
X53980630Y-151658600D01*
X54206641Y-151636439D01*
X54424043Y-151570802D01*
X54624556Y-151464187D01*
X54800542Y-151320657D01*
X54945298Y-151145677D01*
X55053310Y-150945913D01*
X55120464Y-150728974D01*
X55144202Y-150503123D01*
X55123619Y-150276963D01*
X55059501Y-150059108D01*
X54954289Y-149857855D01*
X54847470Y-149725000D01*
X55245000Y-149725000D01*
X55643414Y-149725000D01*
X55544702Y-149844323D01*
X55436690Y-150044087D01*
X55369536Y-150261026D01*
X55345798Y-150486877D01*
X55366381Y-150713037D01*
X55430499Y-150930892D01*
X55535711Y-151132145D01*
X55642529Y-151265000D01*
X55245000Y-151265000D01*
X55199011Y-151269509D01*
X55153024Y-151273532D01*
X55150499Y-151274265D01*
X55147883Y-151274522D01*
X55103676Y-151287868D01*
X55059316Y-151300757D01*
X55056980Y-151301967D01*
X55054465Y-151302727D01*
X55013675Y-151324415D01*
X54972680Y-151345665D01*
X54970627Y-151347303D01*
X54968304Y-151348539D01*
X54932512Y-151377730D01*
X54896417Y-151406545D01*
X54892754Y-151410156D01*
X54892683Y-151410215D01*
X54892628Y-151410281D01*
X54891446Y-151411447D01*
X54361872Y-151941020D01*
X54222556Y-151896827D01*
X53996876Y-151871513D01*
X53980630Y-151871400D01*
X53969370Y-151871400D01*
X53743359Y-151893561D01*
X53525957Y-151959198D01*
X53325444Y-152065813D01*
X53149458Y-152209343D01*
X53004702Y-152384323D01*
X52896690Y-152584087D01*
X52829536Y-152801026D01*
X52805798Y-153026877D01*
X52826381Y-153253037D01*
X52890499Y-153470892D01*
X52995711Y-153672145D01*
X53138010Y-153849128D01*
X53311974Y-153995102D01*
X53510979Y-154104506D01*
X53727444Y-154173173D01*
X53953124Y-154198487D01*
X53969370Y-154198600D01*
X53980630Y-154198600D01*
X54206641Y-154176439D01*
X54424043Y-154110802D01*
X54624556Y-154004187D01*
X54800542Y-153860657D01*
X54945298Y-153685677D01*
X55053310Y-153485913D01*
X55120464Y-153268974D01*
X55144202Y-153043123D01*
X55123619Y-152816963D01*
X55072802Y-152644303D01*
X55452106Y-152265000D01*
X56942893Y-152265000D01*
X57285000Y-152607106D01*
X57285000Y-153670000D01*
X57289504Y-153715943D01*
X57293532Y-153761976D01*
X57294265Y-153764500D01*
X57294522Y-153767117D01*
X57307868Y-153811323D01*
X57320757Y-153855684D01*
X57321967Y-153858019D01*
X57322727Y-153860535D01*
X57344394Y-153901285D01*
X57365664Y-153942320D01*
X57367305Y-153944376D01*
X57368539Y-153946696D01*
X57397727Y-153982484D01*
X57426545Y-154018582D01*
X57430152Y-154022239D01*
X57430215Y-154022317D01*
X57430286Y-154022376D01*
X57431447Y-154023553D01*
X58066447Y-154658554D01*
X58066452Y-154658558D01*
X59190000Y-155782106D01*
X59190000Y-156845000D01*
X59190000Y-159177893D01*
X58186663Y-160181230D01*
X58155704Y-160160544D01*
X58101107Y-160137929D01*
X58043148Y-160126400D01*
X57984053Y-160126400D01*
X57650000Y-160126400D01*
X57650000Y-159250000D01*
X57785000Y-159250000D01*
X57830943Y-159245495D01*
X57876976Y-159241468D01*
X57879500Y-159240734D01*
X57882117Y-159240478D01*
X57926323Y-159227131D01*
X57970684Y-159214243D01*
X57973019Y-159213032D01*
X57975535Y-159212273D01*
X58016285Y-159190605D01*
X58057320Y-159169336D01*
X58059376Y-159167694D01*
X58061696Y-159166461D01*
X58097484Y-159137272D01*
X58133582Y-159108455D01*
X58137239Y-159104847D01*
X58137317Y-159104785D01*
X58137376Y-159104713D01*
X58138553Y-159103553D01*
X58773554Y-158468553D01*
X58802879Y-158432851D01*
X58832557Y-158397484D01*
X58833823Y-158395180D01*
X58835493Y-158393148D01*
X58857320Y-158352439D01*
X58879568Y-158311971D01*
X58880363Y-158309463D01*
X58881605Y-158307148D01*
X58895107Y-158262984D01*
X58909074Y-158218956D01*
X58909366Y-158216344D01*
X58910136Y-158213829D01*
X58914805Y-158167852D01*
X58919951Y-158121981D01*
X58919987Y-158116842D01*
X58919997Y-158116745D01*
X58919988Y-158116653D01*
X58920000Y-158115000D01*
X58920000Y-156845000D01*
X58920000Y-156210000D01*
X58915490Y-156164011D01*
X58911468Y-156118024D01*
X58910734Y-156115499D01*
X58910478Y-156112883D01*
X58897131Y-156068676D01*
X58884243Y-156024316D01*
X58883032Y-156021980D01*
X58882273Y-156019465D01*
X58860584Y-155978675D01*
X58839335Y-155937680D01*
X58837696Y-155935627D01*
X58836461Y-155933304D01*
X58807269Y-155897512D01*
X58778455Y-155861417D01*
X58774843Y-155857754D01*
X58774785Y-155857683D01*
X58774718Y-155857628D01*
X58773553Y-155856446D01*
X57503553Y-154586447D01*
X57467908Y-154557167D01*
X57432484Y-154527443D01*
X57430177Y-154526174D01*
X57428148Y-154524508D01*
X57387478Y-154502701D01*
X57346971Y-154480432D01*
X57344463Y-154479636D01*
X57342148Y-154478395D01*
X57297984Y-154464892D01*
X57253956Y-154450926D01*
X57251344Y-154450633D01*
X57248829Y-154449864D01*
X57202852Y-154445194D01*
X57156981Y-154440049D01*
X57151842Y-154440012D01*
X57151745Y-154440003D01*
X57151653Y-154440011D01*
X57150000Y-154440000D01*
X53547106Y-154440000D01*
X53058624Y-153951518D01*
X53058553Y-153951447D01*
X53058553Y-153951446D01*
X52598600Y-153491493D01*
X52598600Y-152141853D01*
X52587071Y-152083894D01*
X52564457Y-152029297D01*
X52531625Y-151980161D01*
X52489839Y-151938375D01*
X52440704Y-151905544D01*
X52386107Y-151882929D01*
X52328148Y-151871400D01*
X52269053Y-151871400D01*
X50541853Y-151871400D01*
X50483894Y-151882929D01*
X50429297Y-151905543D01*
X50380161Y-151938375D01*
X50338375Y-151980161D01*
X50305544Y-152029296D01*
X50282929Y-152083893D01*
X50271400Y-152141852D01*
X50271400Y-152200947D01*
X50271400Y-153928147D01*
X50282929Y-153986106D01*
X50305543Y-154040703D01*
X50338375Y-154089839D01*
X50380161Y-154131625D01*
X50429296Y-154164456D01*
X50483893Y-154187071D01*
X50541852Y-154198600D01*
X50600947Y-154198600D01*
X51891493Y-154198600D01*
X52351446Y-154658553D01*
X52351447Y-154658553D01*
X52351451Y-154658557D01*
X52986447Y-155293554D01*
X53022148Y-155322879D01*
X53057516Y-155352557D01*
X53059819Y-155353823D01*
X53061852Y-155355493D01*
X53102560Y-155377320D01*
X53143029Y-155399568D01*
X53145536Y-155400363D01*
X53147852Y-155401605D01*
X53192015Y-155415107D01*
X53236044Y-155429074D01*
X53238655Y-155429366D01*
X53241171Y-155430136D01*
X53287147Y-155434805D01*
X53333019Y-155439951D01*
X53338157Y-155439987D01*
X53338255Y-155439997D01*
X53338346Y-155439988D01*
X53340000Y-155440000D01*
X56942893Y-155440000D01*
X57920000Y-156417106D01*
X57920000Y-156845000D01*
X57920000Y-157907893D01*
X57577893Y-158250000D01*
X57150000Y-158250000D01*
X54610000Y-158250000D01*
X43815000Y-158250000D01*
X43769047Y-158254505D01*
X43723025Y-158258532D01*
X43720500Y-158259265D01*
X43717883Y-158259522D01*
X43673664Y-158272872D01*
X43629316Y-158285757D01*
X43626980Y-158286967D01*
X43624465Y-158287727D01*
X43583694Y-158309404D01*
X43542681Y-158330664D01*
X43540626Y-158332304D01*
X43538304Y-158333539D01*
X43502493Y-158362745D01*
X43466418Y-158391545D01*
X43462755Y-158395155D01*
X43462683Y-158395215D01*
X43462627Y-158395282D01*
X43461447Y-158396446D01*
X42826447Y-159031447D01*
X42797167Y-159067091D01*
X42767443Y-159102516D01*
X42766174Y-159104822D01*
X42764508Y-159106852D01*
X42742701Y-159147521D01*
X42720432Y-159188029D01*
X42719636Y-159190536D01*
X42718395Y-159192852D01*
X42704892Y-159237015D01*
X42690926Y-159281044D01*
X42690633Y-159283655D01*
X42689864Y-159286171D01*
X42685194Y-159332147D01*
X42680049Y-159378019D01*
X42680012Y-159383157D01*
X42680003Y-159383255D01*
X42680011Y-159383346D01*
X42680000Y-159385000D01*
X42680000Y-170324850D01*
X42641174Y-170362872D01*
X42563617Y-170476141D01*
X42509538Y-170602317D01*
X42480997Y-170736594D01*
X42479080Y-170873858D01*
X42503861Y-171008880D01*
X42554396Y-171136517D01*
X42628760Y-171251907D01*
X42724121Y-171350656D01*
X42836846Y-171429002D01*
X42962641Y-171483961D01*
X43096716Y-171513439D01*
X43233963Y-171516314D01*
X43369155Y-171492476D01*
X43497141Y-171442833D01*
X43613048Y-171369277D01*
X43712460Y-171274608D01*
X43791591Y-171162432D01*
X43847427Y-171037023D01*
X43877841Y-170903158D01*
X43880030Y-170746361D01*
X43853366Y-170611699D01*
X43801054Y-170484780D01*
X43725086Y-170370439D01*
X43680000Y-170325036D01*
X43680000Y-159592106D01*
X44022106Y-159250000D01*
X54610000Y-159250000D01*
X56650000Y-159250000D01*
X56650000Y-160126400D01*
X56256853Y-160126400D01*
X56198894Y-160137929D01*
X56144297Y-160160543D01*
X56095161Y-160193375D01*
X56053375Y-160235161D01*
X56020544Y-160284296D01*
X55997929Y-160338893D01*
X55986400Y-160396852D01*
X55986400Y-160455947D01*
X55986400Y-162183147D01*
X55997929Y-162241106D01*
X56020543Y-162295703D01*
X56053375Y-162344839D01*
X56095161Y-162386625D01*
X56144296Y-162419456D01*
X56198893Y-162442071D01*
X56256852Y-162453600D01*
X56315947Y-162453600D01*
X57920000Y-162453600D01*
X57920000Y-162560000D01*
X57920000Y-162958414D01*
X57800677Y-162859702D01*
X57600913Y-162751690D01*
X57383974Y-162684536D01*
X57158123Y-162660798D01*
X56931963Y-162681381D01*
X56714108Y-162745499D01*
X56512855Y-162850711D01*
X56335872Y-162993010D01*
X56189898Y-163166974D01*
X56080494Y-163365979D01*
X56011827Y-163582444D01*
X55986513Y-163808124D01*
X55986400Y-163824370D01*
X55986400Y-163835630D01*
X56008561Y-164061641D01*
X56074198Y-164279043D01*
X56180813Y-164479556D01*
X56324343Y-164655542D01*
X56499323Y-164800298D01*
X56699087Y-164908310D01*
X56916026Y-164975464D01*
X57141877Y-164999202D01*
X57368037Y-164978619D01*
X57585892Y-164914501D01*
X57787145Y-164809289D01*
X57920000Y-164702470D01*
X57920000Y-165100000D01*
X57920000Y-166797893D01*
X57577893Y-167140000D01*
X56515000Y-167140000D01*
X56469047Y-167144505D01*
X56423025Y-167148532D01*
X56420500Y-167149265D01*
X56417883Y-167149522D01*
X56373664Y-167162872D01*
X56329316Y-167175757D01*
X56326980Y-167176967D01*
X56324465Y-167177727D01*
X56283694Y-167199404D01*
X56242681Y-167220664D01*
X56240626Y-167222304D01*
X56238304Y-167223539D01*
X56202493Y-167252745D01*
X56166418Y-167281545D01*
X56162755Y-167285155D01*
X56162683Y-167285215D01*
X56162627Y-167285282D01*
X56161447Y-167286446D01*
X55526447Y-167921447D01*
X55497167Y-167957091D01*
X55467443Y-167992516D01*
X55466174Y-167994822D01*
X55464508Y-167996852D01*
X55442701Y-168037521D01*
X55420432Y-168078029D01*
X55419636Y-168080536D01*
X55418395Y-168082852D01*
X55404892Y-168127015D01*
X55390926Y-168171044D01*
X55390633Y-168173655D01*
X55389864Y-168176171D01*
X55385194Y-168222147D01*
X55380049Y-168268019D01*
X55380012Y-168273157D01*
X55380003Y-168273255D01*
X55380011Y-168273346D01*
X55380000Y-168275000D01*
X55380000Y-168910000D01*
X55380000Y-171242893D01*
X53767893Y-172855000D01*
X53120615Y-172855000D01*
X53120615Y-168707926D01*
X53120615Y-163826046D01*
X53080597Y-163623943D01*
X53002086Y-163433461D01*
X52888072Y-163261856D01*
X52742899Y-163115665D01*
X52572094Y-163000456D01*
X52382165Y-162920618D01*
X52180346Y-162879190D01*
X51974323Y-162877752D01*
X51771945Y-162916357D01*
X51580920Y-162993537D01*
X51408524Y-163106350D01*
X51261323Y-163250499D01*
X51144924Y-163420495D01*
X51063761Y-163609862D01*
X51020926Y-163811387D01*
X51018049Y-164017395D01*
X51055241Y-164220037D01*
X51131085Y-164411597D01*
X51242692Y-164584777D01*
X51385810Y-164732980D01*
X51554989Y-164850563D01*
X51743785Y-164933046D01*
X51945006Y-164977287D01*
X52150989Y-164981602D01*
X52353886Y-164945825D01*
X52545970Y-164871321D01*
X52719925Y-164760926D01*
X52869124Y-164618845D01*
X52987885Y-164450491D01*
X53071684Y-164262276D01*
X53117329Y-164061368D01*
X53120615Y-163826046D01*
X53120615Y-168707926D01*
X53080597Y-168505823D01*
X53002086Y-168315341D01*
X52888072Y-168143736D01*
X52742899Y-167997545D01*
X52572094Y-167882336D01*
X52382165Y-167802498D01*
X52284570Y-167782464D01*
X46419182Y-161917076D01*
X46420030Y-161856361D01*
X46393366Y-161721699D01*
X46341054Y-161594780D01*
X46265086Y-161480439D01*
X46168356Y-161383031D01*
X46054548Y-161306267D01*
X45927997Y-161253070D01*
X45793524Y-161225466D01*
X45656250Y-161224508D01*
X45521405Y-161250231D01*
X45394124Y-161301656D01*
X45279255Y-161376824D01*
X45181174Y-161472872D01*
X45103617Y-161586141D01*
X45049538Y-161712317D01*
X45020997Y-161846594D01*
X45019080Y-161983858D01*
X45043861Y-162118880D01*
X45094396Y-162246517D01*
X45168760Y-162361907D01*
X45264121Y-162460656D01*
X45376846Y-162539002D01*
X45502641Y-162593961D01*
X45636716Y-162623439D01*
X45712929Y-162625035D01*
X51244639Y-168156745D01*
X51144924Y-168302375D01*
X51063761Y-168491742D01*
X51020926Y-168693267D01*
X51018049Y-168899275D01*
X51055241Y-169101917D01*
X51131085Y-169293477D01*
X51242692Y-169466657D01*
X51385810Y-169614860D01*
X51554989Y-169732443D01*
X51743785Y-169814926D01*
X51945006Y-169859167D01*
X52150989Y-169863482D01*
X52353886Y-169827705D01*
X52545970Y-169753201D01*
X52719925Y-169642806D01*
X52869124Y-169500725D01*
X52987885Y-169332371D01*
X53071684Y-169144156D01*
X53117329Y-168943248D01*
X53120615Y-168707926D01*
X53120615Y-172855000D01*
X44450000Y-172855000D01*
X40212106Y-172855000D01*
X38799182Y-171442076D01*
X38800030Y-171381361D01*
X38773366Y-171246699D01*
X38721054Y-171119780D01*
X38645086Y-171005439D01*
X38548356Y-170908031D01*
X38434548Y-170831267D01*
X38307997Y-170778070D01*
X38173524Y-170750466D01*
X38036250Y-170749508D01*
X37901405Y-170775231D01*
X37774124Y-170826656D01*
X37659255Y-170901824D01*
X37561174Y-170997872D01*
X37483617Y-171111141D01*
X37429538Y-171237317D01*
X37400997Y-171371594D01*
X37399080Y-171508858D01*
X37423861Y-171643880D01*
X37474396Y-171771517D01*
X37548760Y-171886907D01*
X37644121Y-171985656D01*
X37756846Y-172064002D01*
X37882641Y-172118961D01*
X38016716Y-172148439D01*
X38092929Y-172150035D01*
X39432893Y-173490000D01*
X34497106Y-173490000D01*
X33084182Y-172077076D01*
X33085030Y-172016361D01*
X33058366Y-171881699D01*
X33006054Y-171754780D01*
X32930086Y-171640439D01*
X32885000Y-171595036D01*
X32885000Y-161121051D01*
X32894068Y-161115297D01*
X32993480Y-161020628D01*
X33072611Y-160908452D01*
X33128447Y-160783043D01*
X33158861Y-160649178D01*
X33161050Y-160492381D01*
X33134386Y-160357719D01*
X33082074Y-160230800D01*
X33006106Y-160116459D01*
X32909376Y-160019051D01*
X32795568Y-159942287D01*
X32669017Y-159889090D01*
X32534544Y-159861486D01*
X32397270Y-159860528D01*
X32262425Y-159886251D01*
X32135144Y-159937676D01*
X32020275Y-160012844D01*
X31922194Y-160108892D01*
X31844637Y-160222161D01*
X31790558Y-160348337D01*
X31762017Y-160482614D01*
X31760100Y-160619878D01*
X31784881Y-160754900D01*
X31835416Y-160882537D01*
X31885000Y-160959476D01*
X31885000Y-171594850D01*
X31846174Y-171632872D01*
X31768617Y-171746141D01*
X31714538Y-171872317D01*
X31685997Y-172006594D01*
X31684080Y-172143858D01*
X31708861Y-172278880D01*
X31759396Y-172406517D01*
X31833760Y-172521907D01*
X31929121Y-172620656D01*
X32041846Y-172699002D01*
X32167641Y-172753961D01*
X32301716Y-172783439D01*
X32377929Y-172785035D01*
X33936447Y-174343554D01*
X33972148Y-174372879D01*
X34007516Y-174402557D01*
X34009819Y-174403823D01*
X34011852Y-174405493D01*
X34052560Y-174427320D01*
X34093029Y-174449568D01*
X34095536Y-174450363D01*
X34097852Y-174451605D01*
X34142015Y-174465107D01*
X34186044Y-174479074D01*
X34188655Y-174479366D01*
X34191171Y-174480136D01*
X34237147Y-174484805D01*
X34283019Y-174489951D01*
X34288157Y-174489987D01*
X34288255Y-174489997D01*
X34288346Y-174489988D01*
X34290000Y-174490000D01*
X62865000Y-174490000D01*
X62910943Y-174485495D01*
X62956976Y-174481468D01*
X62959500Y-174480734D01*
X62962117Y-174480478D01*
X63006323Y-174467131D01*
X63050684Y-174454243D01*
X63053019Y-174453032D01*
X63055535Y-174452273D01*
X63096285Y-174430605D01*
X63137320Y-174409336D01*
X63139376Y-174407694D01*
X63141696Y-174406461D01*
X63177484Y-174377272D01*
X63213582Y-174348455D01*
X63217239Y-174344847D01*
X63217317Y-174344785D01*
X63217376Y-174344713D01*
X63218553Y-174343553D01*
X67663553Y-169898554D01*
X67692852Y-169862883D01*
X67722557Y-169827484D01*
X67723825Y-169825177D01*
X67725492Y-169823148D01*
X67747298Y-169782478D01*
X67769568Y-169741971D01*
X67770363Y-169739463D01*
X67771605Y-169737148D01*
X67785107Y-169692984D01*
X67799074Y-169648956D01*
X67799366Y-169646344D01*
X67800136Y-169643829D01*
X67804800Y-169597897D01*
X67809951Y-169551981D01*
X67809987Y-169546832D01*
X67809996Y-169546745D01*
X67809988Y-169546663D01*
X67810000Y-169545000D01*
X67810000Y-165100000D01*
X67805490Y-165054011D01*
X67801468Y-165008024D01*
X67800734Y-165005499D01*
X67800478Y-165002883D01*
X67787131Y-164958676D01*
X67774243Y-164914316D01*
X67773032Y-164911980D01*
X67772273Y-164909465D01*
X67750584Y-164868675D01*
X67729335Y-164827680D01*
X67727696Y-164825627D01*
X67726461Y-164823304D01*
X67697269Y-164787512D01*
X67668455Y-164751417D01*
X67664843Y-164747754D01*
X67664785Y-164747683D01*
X67664718Y-164747628D01*
X67663553Y-164746446D01*
X67133979Y-164216872D01*
X67178173Y-164077556D01*
X67203487Y-163851876D01*
X67203600Y-163835630D01*
X67203600Y-163824370D01*
X67181439Y-163598359D01*
X67115802Y-163380957D01*
X67009187Y-163180444D01*
X66865657Y-163004458D01*
X66690677Y-162859702D01*
X66490913Y-162751690D01*
X66273974Y-162684536D01*
X66048123Y-162660798D01*
X65821963Y-162681381D01*
X65604108Y-162745499D01*
X65402855Y-162850711D01*
X65225872Y-162993010D01*
X65079898Y-163166974D01*
X64970494Y-163365979D01*
X64901827Y-163582444D01*
X64876513Y-163808124D01*
X64876400Y-163824370D01*
X64876400Y-163835630D01*
X64898561Y-164061641D01*
X64964198Y-164279043D01*
X65070813Y-164479556D01*
X65214343Y-164655542D01*
X65389323Y-164800298D01*
X65589087Y-164908310D01*
X65806026Y-164975464D01*
X66031877Y-164999202D01*
X66258037Y-164978619D01*
X66430696Y-164927802D01*
X66810000Y-165307106D01*
X66810000Y-165498414D01*
X66690677Y-165399702D01*
X66490913Y-165291690D01*
X66273974Y-165224536D01*
X66048123Y-165200798D01*
X65821963Y-165221381D01*
X65604108Y-165285499D01*
X65402855Y-165390711D01*
X65225872Y-165533010D01*
X65079898Y-165706974D01*
X64970494Y-165905979D01*
X64901827Y-166122444D01*
X64876513Y-166348124D01*
X64876400Y-166364370D01*
X64876400Y-166375630D01*
X64898561Y-166601641D01*
X64964198Y-166819043D01*
X65070813Y-167019556D01*
X65214343Y-167195542D01*
X65389323Y-167340298D01*
X65589087Y-167448310D01*
X65806026Y-167515464D01*
X66031877Y-167539202D01*
X66258037Y-167518619D01*
X66475892Y-167454501D01*
X66677145Y-167349289D01*
X66810000Y-167242470D01*
X66810000Y-169337893D01*
X64663600Y-171484293D01*
X64663600Y-168915630D01*
X64663600Y-168904370D01*
X64663600Y-166375630D01*
X64663600Y-166364370D01*
X64641439Y-166138359D01*
X64575802Y-165920957D01*
X64469187Y-165720444D01*
X64325657Y-165544458D01*
X64150677Y-165399702D01*
X63950913Y-165291690D01*
X63733974Y-165224536D01*
X63508123Y-165200798D01*
X63281963Y-165221381D01*
X63064108Y-165285499D01*
X62862855Y-165390711D01*
X62685872Y-165533010D01*
X62539898Y-165706974D01*
X62430494Y-165905979D01*
X62361827Y-166122444D01*
X62336513Y-166348124D01*
X62336400Y-166364370D01*
X62336400Y-166375630D01*
X62358561Y-166601641D01*
X62424198Y-166819043D01*
X62530813Y-167019556D01*
X62674343Y-167195542D01*
X62849323Y-167340298D01*
X63049087Y-167448310D01*
X63266026Y-167515464D01*
X63491877Y-167539202D01*
X63718037Y-167518619D01*
X63935892Y-167454501D01*
X64137145Y-167349289D01*
X64314128Y-167206990D01*
X64460102Y-167033026D01*
X64569506Y-166834021D01*
X64638173Y-166617556D01*
X64663487Y-166391876D01*
X64663600Y-166375630D01*
X64663600Y-168904370D01*
X64641439Y-168678359D01*
X64575802Y-168460957D01*
X64469187Y-168260444D01*
X64325657Y-168084458D01*
X64150677Y-167939702D01*
X63950913Y-167831690D01*
X63733974Y-167764536D01*
X63508123Y-167740798D01*
X63281963Y-167761381D01*
X63064108Y-167825499D01*
X62862855Y-167930711D01*
X62685872Y-168073010D01*
X62539898Y-168246974D01*
X62430494Y-168445979D01*
X62361827Y-168662444D01*
X62336513Y-168888124D01*
X62336400Y-168904370D01*
X62336400Y-168915630D01*
X62358561Y-169141641D01*
X62424198Y-169359043D01*
X62530813Y-169559556D01*
X62674343Y-169735542D01*
X62849323Y-169880298D01*
X63049087Y-169988310D01*
X63266026Y-170055464D01*
X63491877Y-170079202D01*
X63718037Y-170058619D01*
X63935892Y-169994501D01*
X64137145Y-169889289D01*
X64314128Y-169746990D01*
X64460102Y-169573026D01*
X64569506Y-169374021D01*
X64638173Y-169157556D01*
X64663487Y-168931876D01*
X64663600Y-168915630D01*
X64663600Y-171484293D01*
X62657893Y-173490000D01*
X54547106Y-173490000D01*
X55191356Y-172845749D01*
X55203861Y-172913880D01*
X55254396Y-173041517D01*
X55328760Y-173156907D01*
X55424121Y-173255656D01*
X55536846Y-173334002D01*
X55662641Y-173388961D01*
X55796716Y-173418439D01*
X55933963Y-173421314D01*
X56069155Y-173397476D01*
X56197141Y-173347833D01*
X56313048Y-173274277D01*
X56370044Y-173220000D01*
X60960000Y-173220000D01*
X61005943Y-173215495D01*
X61051976Y-173211468D01*
X61054500Y-173210734D01*
X61057117Y-173210478D01*
X61101323Y-173197131D01*
X61145684Y-173184243D01*
X61148019Y-173183032D01*
X61150535Y-173182273D01*
X61191285Y-173160605D01*
X61232320Y-173139336D01*
X61234376Y-173137694D01*
X61236696Y-173136461D01*
X61272484Y-173107272D01*
X61308582Y-173078455D01*
X61312239Y-173074847D01*
X61312317Y-173074785D01*
X61312376Y-173074713D01*
X61313553Y-173073553D01*
X61948554Y-172438553D01*
X61977879Y-172402851D01*
X62007557Y-172367484D01*
X62008823Y-172365180D01*
X62010493Y-172363148D01*
X62032320Y-172322439D01*
X62054568Y-172281971D01*
X62055363Y-172279463D01*
X62056605Y-172277148D01*
X62070107Y-172232984D01*
X62084074Y-172188956D01*
X62084366Y-172186344D01*
X62085136Y-172183829D01*
X62089805Y-172137852D01*
X62094951Y-172091981D01*
X62094987Y-172086842D01*
X62094997Y-172086745D01*
X62094988Y-172086653D01*
X62095000Y-172085000D01*
X62095000Y-165942106D01*
X63043506Y-164993600D01*
X64393147Y-164993600D01*
X64451106Y-164982071D01*
X64505703Y-164959457D01*
X64554839Y-164926625D01*
X64596625Y-164884839D01*
X64629456Y-164835704D01*
X64652071Y-164781107D01*
X64663600Y-164723148D01*
X64663600Y-164664053D01*
X64663600Y-162936853D01*
X64652071Y-162878894D01*
X64629457Y-162824297D01*
X64596625Y-162775161D01*
X64554839Y-162733375D01*
X64505704Y-162700544D01*
X64451107Y-162677929D01*
X64393148Y-162666400D01*
X64334053Y-162666400D01*
X62730000Y-162666400D01*
X62730000Y-160655000D01*
X62730000Y-156845000D01*
X62730000Y-155575000D01*
X62725490Y-155529011D01*
X62721468Y-155483024D01*
X62720734Y-155480499D01*
X62720478Y-155477883D01*
X62707131Y-155433676D01*
X62694243Y-155389316D01*
X62693032Y-155386980D01*
X62692273Y-155384465D01*
X62670584Y-155343675D01*
X62649335Y-155302680D01*
X62647696Y-155300627D01*
X62646461Y-155298304D01*
X62617269Y-155262512D01*
X62588455Y-155226417D01*
X62584843Y-155222754D01*
X62584785Y-155222683D01*
X62584718Y-155222628D01*
X62583553Y-155221446D01*
X61559010Y-154196903D01*
X61573124Y-154198487D01*
X61589370Y-154198600D01*
X61600630Y-154198600D01*
X61826641Y-154176439D01*
X62044043Y-154110802D01*
X62244556Y-154004187D01*
X62420542Y-153860657D01*
X62565298Y-153685677D01*
X62673310Y-153485913D01*
X62740464Y-153268974D01*
X62764202Y-153043123D01*
X62743619Y-152816963D01*
X62679501Y-152599108D01*
X62574289Y-152397855D01*
X62431990Y-152220872D01*
X62258026Y-152074898D01*
X62059021Y-151965494D01*
X61842556Y-151896827D01*
X61616876Y-151871513D01*
X61600630Y-151871400D01*
X61589370Y-151871400D01*
X61363359Y-151893561D01*
X61145957Y-151959198D01*
X60945444Y-152065813D01*
X60769458Y-152209343D01*
X60624702Y-152384323D01*
X60516690Y-152584087D01*
X60449536Y-152801026D01*
X60425798Y-153026877D01*
X60429484Y-153067377D01*
X60206077Y-152843970D01*
X60203619Y-152816963D01*
X60139501Y-152599108D01*
X60034289Y-152397855D01*
X59891990Y-152220872D01*
X59718026Y-152074898D01*
X59519021Y-151965494D01*
X59302556Y-151896827D01*
X59076876Y-151871513D01*
X59060630Y-151871400D01*
X59049370Y-151871400D01*
X58823359Y-151893561D01*
X58605957Y-151959198D01*
X58405444Y-152065813D01*
X58241839Y-152199245D01*
X58225595Y-152168694D01*
X58204336Y-152127681D01*
X58202695Y-152125626D01*
X58201461Y-152123304D01*
X58172254Y-152087493D01*
X58143455Y-152051418D01*
X58139844Y-152047755D01*
X58139785Y-152047683D01*
X58139717Y-152047627D01*
X58138554Y-152046447D01*
X57503553Y-151411447D01*
X57467908Y-151382167D01*
X57432484Y-151352443D01*
X57430177Y-151351174D01*
X57428148Y-151349508D01*
X57387478Y-151327701D01*
X57351209Y-151307762D01*
X57485298Y-151145677D01*
X57593310Y-150945913D01*
X57660464Y-150728974D01*
X57684202Y-150503123D01*
X57663619Y-150276963D01*
X57599501Y-150059108D01*
X57494289Y-149857855D01*
X57387470Y-149725000D01*
X58183414Y-149725000D01*
X58084702Y-149844323D01*
X57976690Y-150044087D01*
X57909536Y-150261026D01*
X57885798Y-150486877D01*
X57906381Y-150713037D01*
X57970499Y-150930892D01*
X58075711Y-151132145D01*
X58218010Y-151309128D01*
X58391974Y-151455102D01*
X58590979Y-151564506D01*
X58807444Y-151633173D01*
X59033124Y-151658487D01*
X59049370Y-151658600D01*
X59060630Y-151658600D01*
X59286641Y-151636439D01*
X59504043Y-151570802D01*
X59704556Y-151464187D01*
X59880542Y-151320657D01*
X60025298Y-151145677D01*
X60133310Y-150945913D01*
X60200464Y-150728974D01*
X60224202Y-150503123D01*
X60203619Y-150276963D01*
X60139501Y-150059108D01*
X60034289Y-149857855D01*
X59927470Y-149725000D01*
X60723414Y-149725000D01*
X60624702Y-149844323D01*
X60516690Y-150044087D01*
X60449536Y-150261026D01*
X60425798Y-150486877D01*
X60446381Y-150713037D01*
X60510499Y-150930892D01*
X60615711Y-151132145D01*
X60758010Y-151309128D01*
X60931974Y-151455102D01*
X61130979Y-151564506D01*
X61347444Y-151633173D01*
X61573124Y-151658487D01*
X61589370Y-151658600D01*
X61600630Y-151658600D01*
X61826641Y-151636439D01*
X62044043Y-151570802D01*
X62244556Y-151464187D01*
X62420542Y-151320657D01*
X62565298Y-151145677D01*
X62673310Y-150945913D01*
X62740464Y-150728974D01*
X62764202Y-150503123D01*
X62743619Y-150276963D01*
X62679501Y-150059108D01*
X62574289Y-149857855D01*
X62431990Y-149680872D01*
X62258026Y-149534898D01*
X62059021Y-149425494D01*
X61842556Y-149356827D01*
X61616876Y-149331513D01*
X61600630Y-149331400D01*
X61589370Y-149331400D01*
X61557589Y-149334516D01*
X64579454Y-146312652D01*
X64524094Y-146441818D01*
X64491459Y-146595351D01*
X64489268Y-146752298D01*
X64517602Y-146906682D01*
X64575384Y-147052622D01*
X64660412Y-147184560D01*
X64769448Y-147297469D01*
X64898337Y-147387050D01*
X65042172Y-147449890D01*
X65195473Y-147483595D01*
X65352402Y-147486883D01*
X65506980Y-147459626D01*
X65653320Y-147402865D01*
X65785848Y-147318760D01*
X65899516Y-147210515D01*
X65989994Y-147082254D01*
X66040660Y-146968455D01*
X66073984Y-147052622D01*
X66159012Y-147184560D01*
X66268048Y-147297469D01*
X66396937Y-147387050D01*
X66540772Y-147449890D01*
X66694073Y-147483595D01*
X66851002Y-147486883D01*
X67005580Y-147459626D01*
X67151920Y-147402865D01*
X67284448Y-147318760D01*
X67398116Y-147210515D01*
X67488594Y-147082254D01*
X67552436Y-146938862D01*
X67587211Y-146785800D01*
X67589715Y-146606519D01*
X67559227Y-146452545D01*
X67499413Y-146307426D01*
X67412551Y-146176689D01*
X67301950Y-146065312D01*
X67171822Y-145977540D01*
X67027124Y-145916715D01*
X66873367Y-145885153D01*
X66716408Y-145884057D01*
X66562226Y-145913469D01*
X66416693Y-145972268D01*
X66285352Y-146058215D01*
X66173206Y-146168036D01*
X66084528Y-146297548D01*
X66039777Y-146401959D01*
X66000813Y-146307426D01*
X65913951Y-146176689D01*
X65803350Y-146065312D01*
X65673222Y-145977540D01*
X65528524Y-145916715D01*
X65374767Y-145885153D01*
X65217808Y-145884057D01*
X65063626Y-145913469D01*
X64921022Y-145971084D01*
X66681781Y-144210325D01*
X66728963Y-144211314D01*
X66864155Y-144187476D01*
X66992141Y-144137833D01*
X67108048Y-144064277D01*
X67207460Y-143969608D01*
X67286591Y-143857432D01*
X67342427Y-143732023D01*
X67372841Y-143598158D01*
X67375030Y-143441361D01*
X67348366Y-143306699D01*
X67296054Y-143179780D01*
X67220086Y-143065439D01*
X67175000Y-143020036D01*
X67175000Y-132364798D01*
X69440592Y-130099206D01*
X69473423Y-130050071D01*
X69488731Y-130013112D01*
X69585632Y-130326148D01*
X69699888Y-131413221D01*
X69700000Y-131445234D01*
X69700000Y-150487665D01*
X69593310Y-151575772D01*
X69279433Y-152615382D01*
X68769607Y-153574226D01*
X68083249Y-154415784D01*
X67246502Y-155108000D01*
X66291248Y-155624504D01*
X65253851Y-155945632D01*
X64166778Y-156059888D01*
X64134477Y-156060001D01*
X64134476Y-156060001D01*
X64130059Y-156060016D01*
X64123527Y-156060678D01*
X64116971Y-156060633D01*
X64114887Y-156060837D01*
X63991636Y-156073792D01*
X63978349Y-156076519D01*
X63964965Y-156079073D01*
X63962960Y-156079678D01*
X63844572Y-156116325D01*
X63832021Y-156121601D01*
X63819434Y-156126687D01*
X63817584Y-156127670D01*
X63708570Y-156186614D01*
X63697319Y-156194202D01*
X63685922Y-156201661D01*
X63684299Y-156202984D01*
X63588810Y-156281980D01*
X63579258Y-156291598D01*
X63569516Y-156301139D01*
X63568181Y-156302753D01*
X63489854Y-156398791D01*
X63482309Y-156410145D01*
X63474649Y-156421334D01*
X63473653Y-156423175D01*
X63415471Y-156532599D01*
X63410277Y-156545199D01*
X63404935Y-156557665D01*
X63404315Y-156559665D01*
X63368495Y-156678306D01*
X63365851Y-156691654D01*
X63363028Y-156704942D01*
X63362809Y-156707020D01*
X63362809Y-156707023D01*
X63362809Y-156707025D01*
X63350716Y-156830363D01*
X63350716Y-156836910D01*
X63350009Y-156843414D01*
X63350001Y-156845508D01*
X63350016Y-156849941D01*
X63350678Y-156856472D01*
X63350633Y-156863029D01*
X63350837Y-156865113D01*
X63363792Y-156988364D01*
X63366520Y-157001656D01*
X63369073Y-157015035D01*
X63369678Y-157017040D01*
X63406325Y-157135428D01*
X63411601Y-157147978D01*
X63416687Y-157160566D01*
X63417670Y-157162415D01*
X63476614Y-157271430D01*
X63484213Y-157282697D01*
X63491661Y-157294077D01*
X63492984Y-157295700D01*
X63571980Y-157391190D01*
X63581634Y-157400777D01*
X63591139Y-157410483D01*
X63592752Y-157411818D01*
X63688791Y-157490146D01*
X63700104Y-157497662D01*
X63711333Y-157505351D01*
X63713175Y-157506347D01*
X63822599Y-157564529D01*
X63835171Y-157569710D01*
X63847665Y-157575065D01*
X63849665Y-157575685D01*
X63968306Y-157611505D01*
X63981654Y-157614148D01*
X63994942Y-157616972D01*
X63997021Y-157617190D01*
X63997023Y-157617191D01*
X63997024Y-157617191D01*
X64120363Y-157629284D01*
X64126655Y-157629284D01*
X64132906Y-157629985D01*
X64135000Y-157630000D01*
X66667665Y-157630000D01*
X67262418Y-157688315D01*
X67827463Y-157858913D01*
X68348611Y-158136012D01*
X68806013Y-158509060D01*
X69182241Y-158963842D01*
X69462972Y-159483042D01*
X69637510Y-160046886D01*
X69699950Y-160640953D01*
X69700000Y-160655233D01*
X69700000Y-172077665D01*
X69700000Y-172077665D01*
G37*
X69700000Y-172077665D02*
X69641684Y-172672417D01*
X69471086Y-173237463D01*
X69193987Y-173758611D01*
X68820941Y-174216010D01*
X68366157Y-174592241D01*
X67846957Y-174872972D01*
X67283113Y-175047510D01*
X66689047Y-175109950D01*
X66674766Y-175110000D01*
X24250051Y-175110000D01*
X24250051Y-168502334D01*
X24250051Y-164002334D01*
X24204342Y-163771484D01*
X24114664Y-163553908D01*
X23984433Y-163357895D01*
X23818610Y-163190911D01*
X23623511Y-163059314D01*
X23406567Y-162968120D01*
X23176041Y-162920800D01*
X22940715Y-162919157D01*
X22709551Y-162963253D01*
X22491355Y-163051410D01*
X22294437Y-163180270D01*
X22126299Y-163344923D01*
X21993344Y-163539099D01*
X21900637Y-163755401D01*
X21851709Y-163985590D01*
X21848423Y-164220899D01*
X21890905Y-164452365D01*
X21977536Y-164671171D01*
X22105018Y-164868984D01*
X22268493Y-165038267D01*
X22461736Y-165172575D01*
X22677385Y-165266790D01*
X22907228Y-165317324D01*
X23142508Y-165322252D01*
X23374265Y-165281387D01*
X23593671Y-165196285D01*
X23792368Y-165070188D01*
X23962789Y-164907898D01*
X24098442Y-164715598D01*
X24194160Y-164500612D01*
X24246298Y-164271128D01*
X24250051Y-164002334D01*
X24250051Y-168502334D01*
X24204342Y-168271484D01*
X24114664Y-168053908D01*
X23984433Y-167857895D01*
X23818610Y-167690911D01*
X23623511Y-167559314D01*
X23406567Y-167468120D01*
X23176041Y-167420800D01*
X22940715Y-167419157D01*
X22709551Y-167463253D01*
X22491355Y-167551410D01*
X22294437Y-167680270D01*
X22126299Y-167844923D01*
X21993344Y-168039099D01*
X21900637Y-168255401D01*
X21851709Y-168485590D01*
X21848423Y-168720899D01*
X21890905Y-168952365D01*
X21977536Y-169171171D01*
X22105018Y-169368984D01*
X22268493Y-169538267D01*
X22461736Y-169672575D01*
X22677385Y-169766790D01*
X22907228Y-169817324D01*
X23142508Y-169822252D01*
X23374265Y-169781387D01*
X23593671Y-169696285D01*
X23792368Y-169570188D01*
X23962789Y-169407898D01*
X24098442Y-169215598D01*
X24194160Y-169000612D01*
X24246298Y-168771128D01*
X24250051Y-168502334D01*
X24250051Y-175110000D01*
X23502334Y-175110000D01*
X22907582Y-175051684D01*
X22342536Y-174881086D01*
X21821388Y-174603987D01*
X21363989Y-174230941D01*
X20987758Y-173776157D01*
X20707027Y-173256957D01*
X20532489Y-172693113D01*
X20470049Y-172099047D01*
X20470000Y-172085000D01*
X20470000Y-172084766D01*
X20470000Y-160662334D01*
X20528315Y-160067581D01*
X20698913Y-159502536D01*
X20976012Y-158981388D01*
X21349060Y-158523986D01*
X21803842Y-158147758D01*
X22323042Y-157867027D01*
X22886886Y-157692489D01*
X23480953Y-157630049D01*
X23495000Y-157630000D01*
X23495233Y-157630000D01*
X49530000Y-157630000D01*
X56515000Y-157630000D01*
X56515028Y-157629997D01*
X56515508Y-157629999D01*
X56519941Y-157629984D01*
X56526472Y-157629321D01*
X56533029Y-157629367D01*
X56535113Y-157629163D01*
X56658364Y-157616208D01*
X56671656Y-157613479D01*
X56685035Y-157610927D01*
X56687040Y-157610322D01*
X56687041Y-157610321D01*
X56805428Y-157573675D01*
X56817978Y-157568398D01*
X56830566Y-157563313D01*
X56832415Y-157562330D01*
X56941430Y-157503386D01*
X56952697Y-157495786D01*
X56964077Y-157488339D01*
X56965700Y-157487016D01*
X57061190Y-157408020D01*
X57070777Y-157398365D01*
X57080483Y-157388861D01*
X57081818Y-157387248D01*
X57160146Y-157291209D01*
X57167662Y-157279895D01*
X57175351Y-157268667D01*
X57176346Y-157266825D01*
X57176347Y-157266825D01*
X57234529Y-157157401D01*
X57239710Y-157144828D01*
X57245065Y-157132335D01*
X57245684Y-157130335D01*
X57245685Y-157130335D01*
X57281505Y-157011694D01*
X57284148Y-156998345D01*
X57286972Y-156985058D01*
X57287190Y-156982978D01*
X57287191Y-156982977D01*
X57287191Y-156982976D01*
X57299284Y-156859637D01*
X57299284Y-156853089D01*
X57299991Y-156846586D01*
X57299999Y-156844492D01*
X57299984Y-156840059D01*
X57299321Y-156833527D01*
X57299367Y-156826971D01*
X57299163Y-156824887D01*
X57286208Y-156701636D01*
X57283480Y-156688349D01*
X57280927Y-156674965D01*
X57280322Y-156672960D01*
X57280321Y-156672959D01*
X57243675Y-156554572D01*
X57238398Y-156542021D01*
X57233313Y-156529434D01*
X57232330Y-156527585D01*
X57232330Y-156527584D01*
X57173386Y-156418570D01*
X57165797Y-156407319D01*
X57158339Y-156395922D01*
X57157016Y-156394300D01*
X57157016Y-156394299D01*
X57078020Y-156298810D01*
X57068401Y-156289258D01*
X57058861Y-156279516D01*
X57057247Y-156278181D01*
X56961209Y-156199854D01*
X56949854Y-156192309D01*
X56938666Y-156184649D01*
X56936825Y-156183653D01*
X56827401Y-156125471D01*
X56814800Y-156120277D01*
X56802335Y-156114935D01*
X56800335Y-156114315D01*
X56681694Y-156078495D01*
X56668345Y-156075851D01*
X56655058Y-156073028D01*
X56652979Y-156072809D01*
X56652977Y-156072809D01*
X56652975Y-156072809D01*
X56529637Y-156060716D01*
X56523344Y-156060716D01*
X56517094Y-156060015D01*
X56515000Y-156060000D01*
X48902334Y-156060000D01*
X47814227Y-155953310D01*
X46774617Y-155639433D01*
X45815773Y-155129607D01*
X44974215Y-154443249D01*
X44281999Y-153606502D01*
X43765495Y-152651248D01*
X43444367Y-151613851D01*
X43330111Y-150526778D01*
X43330000Y-150495000D01*
X43330000Y-150494764D01*
X43330000Y-146692334D01*
X43726933Y-142644095D01*
X44900485Y-138757104D01*
X46806672Y-135172086D01*
X49372889Y-132025593D01*
X52501392Y-129437470D01*
X56073013Y-127506301D01*
X59951720Y-126305641D01*
X63996828Y-125880483D01*
X64127925Y-125880025D01*
X65215773Y-125986689D01*
X65564892Y-126092094D01*
X65529930Y-126106577D01*
X65480795Y-126139407D01*
X65439008Y-126181194D01*
X61903474Y-129716728D01*
X61870643Y-129765863D01*
X61848028Y-129820460D01*
X61836499Y-129878420D01*
X61836499Y-129937514D01*
X61848028Y-129995473D01*
X61870643Y-130050070D01*
X61903473Y-130099205D01*
X61945260Y-130140992D01*
X62199159Y-130394891D01*
X62239396Y-130496517D01*
X62313760Y-130611907D01*
X62409121Y-130710656D01*
X62521846Y-130789002D01*
X62647641Y-130843961D01*
X62648394Y-130844126D01*
X65480794Y-133676526D01*
X65529929Y-133709357D01*
X65584526Y-133731972D01*
X65642486Y-133743501D01*
X65701580Y-133743501D01*
X65759539Y-133731972D01*
X65814136Y-133709357D01*
X65863271Y-133676527D01*
X65905058Y-133634740D01*
X66175000Y-133364798D01*
X66175000Y-143019850D01*
X66136174Y-143057872D01*
X66058617Y-143171141D01*
X66004538Y-143297317D01*
X65975997Y-143431594D01*
X65975001Y-143502891D01*
X60752893Y-148725000D01*
X56515000Y-148725000D01*
X55245000Y-148725000D01*
X52122198Y-148725000D01*
X52132841Y-148678158D01*
X52135030Y-148521361D01*
X52108366Y-148386699D01*
X52056054Y-148259780D01*
X51980086Y-148145439D01*
X51883356Y-148048031D01*
X51769548Y-147971267D01*
X51642997Y-147918070D01*
X51508524Y-147890466D01*
X51371250Y-147889508D01*
X51236405Y-147915231D01*
X51109124Y-147966656D01*
X51080874Y-147985142D01*
X47549206Y-144453474D01*
X47500071Y-144420643D01*
X47445474Y-144398028D01*
X47387514Y-144386499D01*
X47328420Y-144386499D01*
X47270461Y-144398028D01*
X47215864Y-144420643D01*
X47166729Y-144453473D01*
X47124942Y-144495260D01*
X43589408Y-148030794D01*
X43556577Y-148079929D01*
X43533962Y-148134526D01*
X43522433Y-148192486D01*
X43522433Y-148251580D01*
X43533962Y-148309539D01*
X43556577Y-148364136D01*
X43589407Y-148413271D01*
X43631194Y-148455058D01*
X47166728Y-151990592D01*
X47215863Y-152023423D01*
X47270460Y-152046038D01*
X47328420Y-152057567D01*
X47387514Y-152057567D01*
X47445473Y-152046038D01*
X47500070Y-152023423D01*
X47549205Y-151990593D01*
X47590992Y-151948806D01*
X49814798Y-149725000D01*
X50563414Y-149725000D01*
X50464702Y-149844323D01*
X50356690Y-150044087D01*
X50289536Y-150261026D01*
X50265798Y-150486877D01*
X50286381Y-150713037D01*
X50350499Y-150930892D01*
X50455711Y-151132145D01*
X50598010Y-151309128D01*
X50771974Y-151455102D01*
X50970979Y-151564506D01*
X51187444Y-151633173D01*
X51413124Y-151658487D01*
X51429370Y-151658600D01*
X51440630Y-151658600D01*
X51666641Y-151636439D01*
X51884043Y-151570802D01*
X52084556Y-151464187D01*
X52260542Y-151320657D01*
X52405298Y-151145677D01*
X52513310Y-150945913D01*
X52580464Y-150728974D01*
X52604202Y-150503123D01*
X52583619Y-150276963D01*
X52519501Y-150059108D01*
X52414289Y-149857855D01*
X52307470Y-149725000D01*
X53103414Y-149725000D01*
X53004702Y-149844323D01*
X52896690Y-150044087D01*
X52829536Y-150261026D01*
X52805798Y-150486877D01*
X52826381Y-150713037D01*
X52890499Y-150930892D01*
X52995711Y-151132145D01*
X53138010Y-151309128D01*
X53311974Y-151455102D01*
X53510979Y-151564506D01*
X53727444Y-151633173D01*
X53953124Y-151658487D01*
X53969370Y-151658600D01*
X53980630Y-151658600D01*
X54206641Y-151636439D01*
X54424043Y-151570802D01*
X54624556Y-151464187D01*
X54800542Y-151320657D01*
X54945298Y-151145677D01*
X55053310Y-150945913D01*
X55120464Y-150728974D01*
X55144202Y-150503123D01*
X55123619Y-150276963D01*
X55059501Y-150059108D01*
X54954289Y-149857855D01*
X54847470Y-149725000D01*
X55245000Y-149725000D01*
X55643414Y-149725000D01*
X55544702Y-149844323D01*
X55436690Y-150044087D01*
X55369536Y-150261026D01*
X55345798Y-150486877D01*
X55366381Y-150713037D01*
X55430499Y-150930892D01*
X55535711Y-151132145D01*
X55642529Y-151265000D01*
X55245000Y-151265000D01*
X55199011Y-151269509D01*
X55153024Y-151273532D01*
X55150499Y-151274265D01*
X55147883Y-151274522D01*
X55103676Y-151287868D01*
X55059316Y-151300757D01*
X55056980Y-151301967D01*
X55054465Y-151302727D01*
X55013675Y-151324415D01*
X54972680Y-151345665D01*
X54970627Y-151347303D01*
X54968304Y-151348539D01*
X54932512Y-151377730D01*
X54896417Y-151406545D01*
X54892754Y-151410156D01*
X54892683Y-151410215D01*
X54892628Y-151410281D01*
X54891446Y-151411447D01*
X54361872Y-151941020D01*
X54222556Y-151896827D01*
X53996876Y-151871513D01*
X53980630Y-151871400D01*
X53969370Y-151871400D01*
X53743359Y-151893561D01*
X53525957Y-151959198D01*
X53325444Y-152065813D01*
X53149458Y-152209343D01*
X53004702Y-152384323D01*
X52896690Y-152584087D01*
X52829536Y-152801026D01*
X52805798Y-153026877D01*
X52826381Y-153253037D01*
X52890499Y-153470892D01*
X52995711Y-153672145D01*
X53138010Y-153849128D01*
X53311974Y-153995102D01*
X53510979Y-154104506D01*
X53727444Y-154173173D01*
X53953124Y-154198487D01*
X53969370Y-154198600D01*
X53980630Y-154198600D01*
X54206641Y-154176439D01*
X54424043Y-154110802D01*
X54624556Y-154004187D01*
X54800542Y-153860657D01*
X54945298Y-153685677D01*
X55053310Y-153485913D01*
X55120464Y-153268974D01*
X55144202Y-153043123D01*
X55123619Y-152816963D01*
X55072802Y-152644303D01*
X55452106Y-152265000D01*
X56942893Y-152265000D01*
X57285000Y-152607106D01*
X57285000Y-153670000D01*
X57289504Y-153715943D01*
X57293532Y-153761976D01*
X57294265Y-153764500D01*
X57294522Y-153767117D01*
X57307868Y-153811323D01*
X57320757Y-153855684D01*
X57321967Y-153858019D01*
X57322727Y-153860535D01*
X57344394Y-153901285D01*
X57365664Y-153942320D01*
X57367305Y-153944376D01*
X57368539Y-153946696D01*
X57397727Y-153982484D01*
X57426545Y-154018582D01*
X57430152Y-154022239D01*
X57430215Y-154022317D01*
X57430286Y-154022376D01*
X57431447Y-154023553D01*
X58066447Y-154658554D01*
X58066452Y-154658558D01*
X59190000Y-155782106D01*
X59190000Y-156845000D01*
X59190000Y-159177893D01*
X58186663Y-160181230D01*
X58155704Y-160160544D01*
X58101107Y-160137929D01*
X58043148Y-160126400D01*
X57984053Y-160126400D01*
X57650000Y-160126400D01*
X57650000Y-159250000D01*
X57785000Y-159250000D01*
X57830943Y-159245495D01*
X57876976Y-159241468D01*
X57879500Y-159240734D01*
X57882117Y-159240478D01*
X57926323Y-159227131D01*
X57970684Y-159214243D01*
X57973019Y-159213032D01*
X57975535Y-159212273D01*
X58016285Y-159190605D01*
X58057320Y-159169336D01*
X58059376Y-159167694D01*
X58061696Y-159166461D01*
X58097484Y-159137272D01*
X58133582Y-159108455D01*
X58137239Y-159104847D01*
X58137317Y-159104785D01*
X58137376Y-159104713D01*
X58138553Y-159103553D01*
X58773554Y-158468553D01*
X58802879Y-158432851D01*
X58832557Y-158397484D01*
X58833823Y-158395180D01*
X58835493Y-158393148D01*
X58857320Y-158352439D01*
X58879568Y-158311971D01*
X58880363Y-158309463D01*
X58881605Y-158307148D01*
X58895107Y-158262984D01*
X58909074Y-158218956D01*
X58909366Y-158216344D01*
X58910136Y-158213829D01*
X58914805Y-158167852D01*
X58919951Y-158121981D01*
X58919987Y-158116842D01*
X58919997Y-158116745D01*
X58919988Y-158116653D01*
X58920000Y-158115000D01*
X58920000Y-156845000D01*
X58920000Y-156210000D01*
X58915490Y-156164011D01*
X58911468Y-156118024D01*
X58910734Y-156115499D01*
X58910478Y-156112883D01*
X58897131Y-156068676D01*
X58884243Y-156024316D01*
X58883032Y-156021980D01*
X58882273Y-156019465D01*
X58860584Y-155978675D01*
X58839335Y-155937680D01*
X58837696Y-155935627D01*
X58836461Y-155933304D01*
X58807269Y-155897512D01*
X58778455Y-155861417D01*
X58774843Y-155857754D01*
X58774785Y-155857683D01*
X58774718Y-155857628D01*
X58773553Y-155856446D01*
X57503553Y-154586447D01*
X57467908Y-154557167D01*
X57432484Y-154527443D01*
X57430177Y-154526174D01*
X57428148Y-154524508D01*
X57387478Y-154502701D01*
X57346971Y-154480432D01*
X57344463Y-154479636D01*
X57342148Y-154478395D01*
X57297984Y-154464892D01*
X57253956Y-154450926D01*
X57251344Y-154450633D01*
X57248829Y-154449864D01*
X57202852Y-154445194D01*
X57156981Y-154440049D01*
X57151842Y-154440012D01*
X57151745Y-154440003D01*
X57151653Y-154440011D01*
X57150000Y-154440000D01*
X53547106Y-154440000D01*
X53058624Y-153951518D01*
X53058553Y-153951447D01*
X53058553Y-153951446D01*
X52598600Y-153491493D01*
X52598600Y-152141853D01*
X52587071Y-152083894D01*
X52564457Y-152029297D01*
X52531625Y-151980161D01*
X52489839Y-151938375D01*
X52440704Y-151905544D01*
X52386107Y-151882929D01*
X52328148Y-151871400D01*
X52269053Y-151871400D01*
X50541853Y-151871400D01*
X50483894Y-151882929D01*
X50429297Y-151905543D01*
X50380161Y-151938375D01*
X50338375Y-151980161D01*
X50305544Y-152029296D01*
X50282929Y-152083893D01*
X50271400Y-152141852D01*
X50271400Y-152200947D01*
X50271400Y-153928147D01*
X50282929Y-153986106D01*
X50305543Y-154040703D01*
X50338375Y-154089839D01*
X50380161Y-154131625D01*
X50429296Y-154164456D01*
X50483893Y-154187071D01*
X50541852Y-154198600D01*
X50600947Y-154198600D01*
X51891493Y-154198600D01*
X52351446Y-154658553D01*
X52351447Y-154658553D01*
X52351451Y-154658557D01*
X52986447Y-155293554D01*
X53022148Y-155322879D01*
X53057516Y-155352557D01*
X53059819Y-155353823D01*
X53061852Y-155355493D01*
X53102560Y-155377320D01*
X53143029Y-155399568D01*
X53145536Y-155400363D01*
X53147852Y-155401605D01*
X53192015Y-155415107D01*
X53236044Y-155429074D01*
X53238655Y-155429366D01*
X53241171Y-155430136D01*
X53287147Y-155434805D01*
X53333019Y-155439951D01*
X53338157Y-155439987D01*
X53338255Y-155439997D01*
X53338346Y-155439988D01*
X53340000Y-155440000D01*
X56942893Y-155440000D01*
X57920000Y-156417106D01*
X57920000Y-156845000D01*
X57920000Y-157907893D01*
X57577893Y-158250000D01*
X57150000Y-158250000D01*
X54610000Y-158250000D01*
X43815000Y-158250000D01*
X43769047Y-158254505D01*
X43723025Y-158258532D01*
X43720500Y-158259265D01*
X43717883Y-158259522D01*
X43673664Y-158272872D01*
X43629316Y-158285757D01*
X43626980Y-158286967D01*
X43624465Y-158287727D01*
X43583694Y-158309404D01*
X43542681Y-158330664D01*
X43540626Y-158332304D01*
X43538304Y-158333539D01*
X43502493Y-158362745D01*
X43466418Y-158391545D01*
X43462755Y-158395155D01*
X43462683Y-158395215D01*
X43462627Y-158395282D01*
X43461447Y-158396446D01*
X42826447Y-159031447D01*
X42797167Y-159067091D01*
X42767443Y-159102516D01*
X42766174Y-159104822D01*
X42764508Y-159106852D01*
X42742701Y-159147521D01*
X42720432Y-159188029D01*
X42719636Y-159190536D01*
X42718395Y-159192852D01*
X42704892Y-159237015D01*
X42690926Y-159281044D01*
X42690633Y-159283655D01*
X42689864Y-159286171D01*
X42685194Y-159332147D01*
X42680049Y-159378019D01*
X42680012Y-159383157D01*
X42680003Y-159383255D01*
X42680011Y-159383346D01*
X42680000Y-159385000D01*
X42680000Y-170324850D01*
X42641174Y-170362872D01*
X42563617Y-170476141D01*
X42509538Y-170602317D01*
X42480997Y-170736594D01*
X42479080Y-170873858D01*
X42503861Y-171008880D01*
X42554396Y-171136517D01*
X42628760Y-171251907D01*
X42724121Y-171350656D01*
X42836846Y-171429002D01*
X42962641Y-171483961D01*
X43096716Y-171513439D01*
X43233963Y-171516314D01*
X43369155Y-171492476D01*
X43497141Y-171442833D01*
X43613048Y-171369277D01*
X43712460Y-171274608D01*
X43791591Y-171162432D01*
X43847427Y-171037023D01*
X43877841Y-170903158D01*
X43880030Y-170746361D01*
X43853366Y-170611699D01*
X43801054Y-170484780D01*
X43725086Y-170370439D01*
X43680000Y-170325036D01*
X43680000Y-159592106D01*
X44022106Y-159250000D01*
X54610000Y-159250000D01*
X56650000Y-159250000D01*
X56650000Y-160126400D01*
X56256853Y-160126400D01*
X56198894Y-160137929D01*
X56144297Y-160160543D01*
X56095161Y-160193375D01*
X56053375Y-160235161D01*
X56020544Y-160284296D01*
X55997929Y-160338893D01*
X55986400Y-160396852D01*
X55986400Y-160455947D01*
X55986400Y-162183147D01*
X55997929Y-162241106D01*
X56020543Y-162295703D01*
X56053375Y-162344839D01*
X56095161Y-162386625D01*
X56144296Y-162419456D01*
X56198893Y-162442071D01*
X56256852Y-162453600D01*
X56315947Y-162453600D01*
X57920000Y-162453600D01*
X57920000Y-162560000D01*
X57920000Y-162958414D01*
X57800677Y-162859702D01*
X57600913Y-162751690D01*
X57383974Y-162684536D01*
X57158123Y-162660798D01*
X56931963Y-162681381D01*
X56714108Y-162745499D01*
X56512855Y-162850711D01*
X56335872Y-162993010D01*
X56189898Y-163166974D01*
X56080494Y-163365979D01*
X56011827Y-163582444D01*
X55986513Y-163808124D01*
X55986400Y-163824370D01*
X55986400Y-163835630D01*
X56008561Y-164061641D01*
X56074198Y-164279043D01*
X56180813Y-164479556D01*
X56324343Y-164655542D01*
X56499323Y-164800298D01*
X56699087Y-164908310D01*
X56916026Y-164975464D01*
X57141877Y-164999202D01*
X57368037Y-164978619D01*
X57585892Y-164914501D01*
X57787145Y-164809289D01*
X57920000Y-164702470D01*
X57920000Y-165100000D01*
X57920000Y-166797893D01*
X57577893Y-167140000D01*
X56515000Y-167140000D01*
X56469047Y-167144505D01*
X56423025Y-167148532D01*
X56420500Y-167149265D01*
X56417883Y-167149522D01*
X56373664Y-167162872D01*
X56329316Y-167175757D01*
X56326980Y-167176967D01*
X56324465Y-167177727D01*
X56283694Y-167199404D01*
X56242681Y-167220664D01*
X56240626Y-167222304D01*
X56238304Y-167223539D01*
X56202493Y-167252745D01*
X56166418Y-167281545D01*
X56162755Y-167285155D01*
X56162683Y-167285215D01*
X56162627Y-167285282D01*
X56161447Y-167286446D01*
X55526447Y-167921447D01*
X55497167Y-167957091D01*
X55467443Y-167992516D01*
X55466174Y-167994822D01*
X55464508Y-167996852D01*
X55442701Y-168037521D01*
X55420432Y-168078029D01*
X55419636Y-168080536D01*
X55418395Y-168082852D01*
X55404892Y-168127015D01*
X55390926Y-168171044D01*
X55390633Y-168173655D01*
X55389864Y-168176171D01*
X55385194Y-168222147D01*
X55380049Y-168268019D01*
X55380012Y-168273157D01*
X55380003Y-168273255D01*
X55380011Y-168273346D01*
X55380000Y-168275000D01*
X55380000Y-168910000D01*
X55380000Y-171242893D01*
X53767893Y-172855000D01*
X53120615Y-172855000D01*
X53120615Y-168707926D01*
X53120615Y-163826046D01*
X53080597Y-163623943D01*
X53002086Y-163433461D01*
X52888072Y-163261856D01*
X52742899Y-163115665D01*
X52572094Y-163000456D01*
X52382165Y-162920618D01*
X52180346Y-162879190D01*
X51974323Y-162877752D01*
X51771945Y-162916357D01*
X51580920Y-162993537D01*
X51408524Y-163106350D01*
X51261323Y-163250499D01*
X51144924Y-163420495D01*
X51063761Y-163609862D01*
X51020926Y-163811387D01*
X51018049Y-164017395D01*
X51055241Y-164220037D01*
X51131085Y-164411597D01*
X51242692Y-164584777D01*
X51385810Y-164732980D01*
X51554989Y-164850563D01*
X51743785Y-164933046D01*
X51945006Y-164977287D01*
X52150989Y-164981602D01*
X52353886Y-164945825D01*
X52545970Y-164871321D01*
X52719925Y-164760926D01*
X52869124Y-164618845D01*
X52987885Y-164450491D01*
X53071684Y-164262276D01*
X53117329Y-164061368D01*
X53120615Y-163826046D01*
X53120615Y-168707926D01*
X53080597Y-168505823D01*
X53002086Y-168315341D01*
X52888072Y-168143736D01*
X52742899Y-167997545D01*
X52572094Y-167882336D01*
X52382165Y-167802498D01*
X52284570Y-167782464D01*
X46419182Y-161917076D01*
X46420030Y-161856361D01*
X46393366Y-161721699D01*
X46341054Y-161594780D01*
X46265086Y-161480439D01*
X46168356Y-161383031D01*
X46054548Y-161306267D01*
X45927997Y-161253070D01*
X45793524Y-161225466D01*
X45656250Y-161224508D01*
X45521405Y-161250231D01*
X45394124Y-161301656D01*
X45279255Y-161376824D01*
X45181174Y-161472872D01*
X45103617Y-161586141D01*
X45049538Y-161712317D01*
X45020997Y-161846594D01*
X45019080Y-161983858D01*
X45043861Y-162118880D01*
X45094396Y-162246517D01*
X45168760Y-162361907D01*
X45264121Y-162460656D01*
X45376846Y-162539002D01*
X45502641Y-162593961D01*
X45636716Y-162623439D01*
X45712929Y-162625035D01*
X51244639Y-168156745D01*
X51144924Y-168302375D01*
X51063761Y-168491742D01*
X51020926Y-168693267D01*
X51018049Y-168899275D01*
X51055241Y-169101917D01*
X51131085Y-169293477D01*
X51242692Y-169466657D01*
X51385810Y-169614860D01*
X51554989Y-169732443D01*
X51743785Y-169814926D01*
X51945006Y-169859167D01*
X52150989Y-169863482D01*
X52353886Y-169827705D01*
X52545970Y-169753201D01*
X52719925Y-169642806D01*
X52869124Y-169500725D01*
X52987885Y-169332371D01*
X53071684Y-169144156D01*
X53117329Y-168943248D01*
X53120615Y-168707926D01*
X53120615Y-172855000D01*
X44450000Y-172855000D01*
X40212106Y-172855000D01*
X38799182Y-171442076D01*
X38800030Y-171381361D01*
X38773366Y-171246699D01*
X38721054Y-171119780D01*
X38645086Y-171005439D01*
X38548356Y-170908031D01*
X38434548Y-170831267D01*
X38307997Y-170778070D01*
X38173524Y-170750466D01*
X38036250Y-170749508D01*
X37901405Y-170775231D01*
X37774124Y-170826656D01*
X37659255Y-170901824D01*
X37561174Y-170997872D01*
X37483617Y-171111141D01*
X37429538Y-171237317D01*
X37400997Y-171371594D01*
X37399080Y-171508858D01*
X37423861Y-171643880D01*
X37474396Y-171771517D01*
X37548760Y-171886907D01*
X37644121Y-171985656D01*
X37756846Y-172064002D01*
X37882641Y-172118961D01*
X38016716Y-172148439D01*
X38092929Y-172150035D01*
X39432893Y-173490000D01*
X34497106Y-173490000D01*
X33084182Y-172077076D01*
X33085030Y-172016361D01*
X33058366Y-171881699D01*
X33006054Y-171754780D01*
X32930086Y-171640439D01*
X32885000Y-171595036D01*
X32885000Y-161121051D01*
X32894068Y-161115297D01*
X32993480Y-161020628D01*
X33072611Y-160908452D01*
X33128447Y-160783043D01*
X33158861Y-160649178D01*
X33161050Y-160492381D01*
X33134386Y-160357719D01*
X33082074Y-160230800D01*
X33006106Y-160116459D01*
X32909376Y-160019051D01*
X32795568Y-159942287D01*
X32669017Y-159889090D01*
X32534544Y-159861486D01*
X32397270Y-159860528D01*
X32262425Y-159886251D01*
X32135144Y-159937676D01*
X32020275Y-160012844D01*
X31922194Y-160108892D01*
X31844637Y-160222161D01*
X31790558Y-160348337D01*
X31762017Y-160482614D01*
X31760100Y-160619878D01*
X31784881Y-160754900D01*
X31835416Y-160882537D01*
X31885000Y-160959476D01*
X31885000Y-171594850D01*
X31846174Y-171632872D01*
X31768617Y-171746141D01*
X31714538Y-171872317D01*
X31685997Y-172006594D01*
X31684080Y-172143858D01*
X31708861Y-172278880D01*
X31759396Y-172406517D01*
X31833760Y-172521907D01*
X31929121Y-172620656D01*
X32041846Y-172699002D01*
X32167641Y-172753961D01*
X32301716Y-172783439D01*
X32377929Y-172785035D01*
X33936447Y-174343554D01*
X33972148Y-174372879D01*
X34007516Y-174402557D01*
X34009819Y-174403823D01*
X34011852Y-174405493D01*
X34052560Y-174427320D01*
X34093029Y-174449568D01*
X34095536Y-174450363D01*
X34097852Y-174451605D01*
X34142015Y-174465107D01*
X34186044Y-174479074D01*
X34188655Y-174479366D01*
X34191171Y-174480136D01*
X34237147Y-174484805D01*
X34283019Y-174489951D01*
X34288157Y-174489987D01*
X34288255Y-174489997D01*
X34288346Y-174489988D01*
X34290000Y-174490000D01*
X62865000Y-174490000D01*
X62910943Y-174485495D01*
X62956976Y-174481468D01*
X62959500Y-174480734D01*
X62962117Y-174480478D01*
X63006323Y-174467131D01*
X63050684Y-174454243D01*
X63053019Y-174453032D01*
X63055535Y-174452273D01*
X63096285Y-174430605D01*
X63137320Y-174409336D01*
X63139376Y-174407694D01*
X63141696Y-174406461D01*
X63177484Y-174377272D01*
X63213582Y-174348455D01*
X63217239Y-174344847D01*
X63217317Y-174344785D01*
X63217376Y-174344713D01*
X63218553Y-174343553D01*
X67663553Y-169898554D01*
X67692852Y-169862883D01*
X67722557Y-169827484D01*
X67723825Y-169825177D01*
X67725492Y-169823148D01*
X67747298Y-169782478D01*
X67769568Y-169741971D01*
X67770363Y-169739463D01*
X67771605Y-169737148D01*
X67785107Y-169692984D01*
X67799074Y-169648956D01*
X67799366Y-169646344D01*
X67800136Y-169643829D01*
X67804800Y-169597897D01*
X67809951Y-169551981D01*
X67809987Y-169546832D01*
X67809996Y-169546745D01*
X67809988Y-169546663D01*
X67810000Y-169545000D01*
X67810000Y-165100000D01*
X67805490Y-165054011D01*
X67801468Y-165008024D01*
X67800734Y-165005499D01*
X67800478Y-165002883D01*
X67787131Y-164958676D01*
X67774243Y-164914316D01*
X67773032Y-164911980D01*
X67772273Y-164909465D01*
X67750584Y-164868675D01*
X67729335Y-164827680D01*
X67727696Y-164825627D01*
X67726461Y-164823304D01*
X67697269Y-164787512D01*
X67668455Y-164751417D01*
X67664843Y-164747754D01*
X67664785Y-164747683D01*
X67664718Y-164747628D01*
X67663553Y-164746446D01*
X67133979Y-164216872D01*
X67178173Y-164077556D01*
X67203487Y-163851876D01*
X67203600Y-163835630D01*
X67203600Y-163824370D01*
X67181439Y-163598359D01*
X67115802Y-163380957D01*
X67009187Y-163180444D01*
X66865657Y-163004458D01*
X66690677Y-162859702D01*
X66490913Y-162751690D01*
X66273974Y-162684536D01*
X66048123Y-162660798D01*
X65821963Y-162681381D01*
X65604108Y-162745499D01*
X65402855Y-162850711D01*
X65225872Y-162993010D01*
X65079898Y-163166974D01*
X64970494Y-163365979D01*
X64901827Y-163582444D01*
X64876513Y-163808124D01*
X64876400Y-163824370D01*
X64876400Y-163835630D01*
X64898561Y-164061641D01*
X64964198Y-164279043D01*
X65070813Y-164479556D01*
X65214343Y-164655542D01*
X65389323Y-164800298D01*
X65589087Y-164908310D01*
X65806026Y-164975464D01*
X66031877Y-164999202D01*
X66258037Y-164978619D01*
X66430696Y-164927802D01*
X66810000Y-165307106D01*
X66810000Y-165498414D01*
X66690677Y-165399702D01*
X66490913Y-165291690D01*
X66273974Y-165224536D01*
X66048123Y-165200798D01*
X65821963Y-165221381D01*
X65604108Y-165285499D01*
X65402855Y-165390711D01*
X65225872Y-165533010D01*
X65079898Y-165706974D01*
X64970494Y-165905979D01*
X64901827Y-166122444D01*
X64876513Y-166348124D01*
X64876400Y-166364370D01*
X64876400Y-166375630D01*
X64898561Y-166601641D01*
X64964198Y-166819043D01*
X65070813Y-167019556D01*
X65214343Y-167195542D01*
X65389323Y-167340298D01*
X65589087Y-167448310D01*
X65806026Y-167515464D01*
X66031877Y-167539202D01*
X66258037Y-167518619D01*
X66475892Y-167454501D01*
X66677145Y-167349289D01*
X66810000Y-167242470D01*
X66810000Y-169337893D01*
X64663600Y-171484293D01*
X64663600Y-168915630D01*
X64663600Y-168904370D01*
X64663600Y-166375630D01*
X64663600Y-166364370D01*
X64641439Y-166138359D01*
X64575802Y-165920957D01*
X64469187Y-165720444D01*
X64325657Y-165544458D01*
X64150677Y-165399702D01*
X63950913Y-165291690D01*
X63733974Y-165224536D01*
X63508123Y-165200798D01*
X63281963Y-165221381D01*
X63064108Y-165285499D01*
X62862855Y-165390711D01*
X62685872Y-165533010D01*
X62539898Y-165706974D01*
X62430494Y-165905979D01*
X62361827Y-166122444D01*
X62336513Y-166348124D01*
X62336400Y-166364370D01*
X62336400Y-166375630D01*
X62358561Y-166601641D01*
X62424198Y-166819043D01*
X62530813Y-167019556D01*
X62674343Y-167195542D01*
X62849323Y-167340298D01*
X63049087Y-167448310D01*
X63266026Y-167515464D01*
X63491877Y-167539202D01*
X63718037Y-167518619D01*
X63935892Y-167454501D01*
X64137145Y-167349289D01*
X64314128Y-167206990D01*
X64460102Y-167033026D01*
X64569506Y-166834021D01*
X64638173Y-166617556D01*
X64663487Y-166391876D01*
X64663600Y-166375630D01*
X64663600Y-168904370D01*
X64641439Y-168678359D01*
X64575802Y-168460957D01*
X64469187Y-168260444D01*
X64325657Y-168084458D01*
X64150677Y-167939702D01*
X63950913Y-167831690D01*
X63733974Y-167764536D01*
X63508123Y-167740798D01*
X63281963Y-167761381D01*
X63064108Y-167825499D01*
X62862855Y-167930711D01*
X62685872Y-168073010D01*
X62539898Y-168246974D01*
X62430494Y-168445979D01*
X62361827Y-168662444D01*
X62336513Y-168888124D01*
X62336400Y-168904370D01*
X62336400Y-168915630D01*
X62358561Y-169141641D01*
X62424198Y-169359043D01*
X62530813Y-169559556D01*
X62674343Y-169735542D01*
X62849323Y-169880298D01*
X63049087Y-169988310D01*
X63266026Y-170055464D01*
X63491877Y-170079202D01*
X63718037Y-170058619D01*
X63935892Y-169994501D01*
X64137145Y-169889289D01*
X64314128Y-169746990D01*
X64460102Y-169573026D01*
X64569506Y-169374021D01*
X64638173Y-169157556D01*
X64663487Y-168931876D01*
X64663600Y-168915630D01*
X64663600Y-171484293D01*
X62657893Y-173490000D01*
X54547106Y-173490000D01*
X55191356Y-172845749D01*
X55203861Y-172913880D01*
X55254396Y-173041517D01*
X55328760Y-173156907D01*
X55424121Y-173255656D01*
X55536846Y-173334002D01*
X55662641Y-173388961D01*
X55796716Y-173418439D01*
X55933963Y-173421314D01*
X56069155Y-173397476D01*
X56197141Y-173347833D01*
X56313048Y-173274277D01*
X56370044Y-173220000D01*
X60960000Y-173220000D01*
X61005943Y-173215495D01*
X61051976Y-173211468D01*
X61054500Y-173210734D01*
X61057117Y-173210478D01*
X61101323Y-173197131D01*
X61145684Y-173184243D01*
X61148019Y-173183032D01*
X61150535Y-173182273D01*
X61191285Y-173160605D01*
X61232320Y-173139336D01*
X61234376Y-173137694D01*
X61236696Y-173136461D01*
X61272484Y-173107272D01*
X61308582Y-173078455D01*
X61312239Y-173074847D01*
X61312317Y-173074785D01*
X61312376Y-173074713D01*
X61313553Y-173073553D01*
X61948554Y-172438553D01*
X61977879Y-172402851D01*
X62007557Y-172367484D01*
X62008823Y-172365180D01*
X62010493Y-172363148D01*
X62032320Y-172322439D01*
X62054568Y-172281971D01*
X62055363Y-172279463D01*
X62056605Y-172277148D01*
X62070107Y-172232984D01*
X62084074Y-172188956D01*
X62084366Y-172186344D01*
X62085136Y-172183829D01*
X62089805Y-172137852D01*
X62094951Y-172091981D01*
X62094987Y-172086842D01*
X62094997Y-172086745D01*
X62094988Y-172086653D01*
X62095000Y-172085000D01*
X62095000Y-165942106D01*
X63043506Y-164993600D01*
X64393147Y-164993600D01*
X64451106Y-164982071D01*
X64505703Y-164959457D01*
X64554839Y-164926625D01*
X64596625Y-164884839D01*
X64629456Y-164835704D01*
X64652071Y-164781107D01*
X64663600Y-164723148D01*
X64663600Y-164664053D01*
X64663600Y-162936853D01*
X64652071Y-162878894D01*
X64629457Y-162824297D01*
X64596625Y-162775161D01*
X64554839Y-162733375D01*
X64505704Y-162700544D01*
X64451107Y-162677929D01*
X64393148Y-162666400D01*
X64334053Y-162666400D01*
X62730000Y-162666400D01*
X62730000Y-160655000D01*
X62730000Y-156845000D01*
X62730000Y-155575000D01*
X62725490Y-155529011D01*
X62721468Y-155483024D01*
X62720734Y-155480499D01*
X62720478Y-155477883D01*
X62707131Y-155433676D01*
X62694243Y-155389316D01*
X62693032Y-155386980D01*
X62692273Y-155384465D01*
X62670584Y-155343675D01*
X62649335Y-155302680D01*
X62647696Y-155300627D01*
X62646461Y-155298304D01*
X62617269Y-155262512D01*
X62588455Y-155226417D01*
X62584843Y-155222754D01*
X62584785Y-155222683D01*
X62584718Y-155222628D01*
X62583553Y-155221446D01*
X61559010Y-154196903D01*
X61573124Y-154198487D01*
X61589370Y-154198600D01*
X61600630Y-154198600D01*
X61826641Y-154176439D01*
X62044043Y-154110802D01*
X62244556Y-154004187D01*
X62420542Y-153860657D01*
X62565298Y-153685677D01*
X62673310Y-153485913D01*
X62740464Y-153268974D01*
X62764202Y-153043123D01*
X62743619Y-152816963D01*
X62679501Y-152599108D01*
X62574289Y-152397855D01*
X62431990Y-152220872D01*
X62258026Y-152074898D01*
X62059021Y-151965494D01*
X61842556Y-151896827D01*
X61616876Y-151871513D01*
X61600630Y-151871400D01*
X61589370Y-151871400D01*
X61363359Y-151893561D01*
X61145957Y-151959198D01*
X60945444Y-152065813D01*
X60769458Y-152209343D01*
X60624702Y-152384323D01*
X60516690Y-152584087D01*
X60449536Y-152801026D01*
X60425798Y-153026877D01*
X60429484Y-153067377D01*
X60206077Y-152843970D01*
X60203619Y-152816963D01*
X60139501Y-152599108D01*
X60034289Y-152397855D01*
X59891990Y-152220872D01*
X59718026Y-152074898D01*
X59519021Y-151965494D01*
X59302556Y-151896827D01*
X59076876Y-151871513D01*
X59060630Y-151871400D01*
X59049370Y-151871400D01*
X58823359Y-151893561D01*
X58605957Y-151959198D01*
X58405444Y-152065813D01*
X58241839Y-152199245D01*
X58225595Y-152168694D01*
X58204336Y-152127681D01*
X58202695Y-152125626D01*
X58201461Y-152123304D01*
X58172254Y-152087493D01*
X58143455Y-152051418D01*
X58139844Y-152047755D01*
X58139785Y-152047683D01*
X58139717Y-152047627D01*
X58138554Y-152046447D01*
X57503553Y-151411447D01*
X57467908Y-151382167D01*
X57432484Y-151352443D01*
X57430177Y-151351174D01*
X57428148Y-151349508D01*
X57387478Y-151327701D01*
X57351209Y-151307762D01*
X57485298Y-151145677D01*
X57593310Y-150945913D01*
X57660464Y-150728974D01*
X57684202Y-150503123D01*
X57663619Y-150276963D01*
X57599501Y-150059108D01*
X57494289Y-149857855D01*
X57387470Y-149725000D01*
X58183414Y-149725000D01*
X58084702Y-149844323D01*
X57976690Y-150044087D01*
X57909536Y-150261026D01*
X57885798Y-150486877D01*
X57906381Y-150713037D01*
X57970499Y-150930892D01*
X58075711Y-151132145D01*
X58218010Y-151309128D01*
X58391974Y-151455102D01*
X58590979Y-151564506D01*
X58807444Y-151633173D01*
X59033124Y-151658487D01*
X59049370Y-151658600D01*
X59060630Y-151658600D01*
X59286641Y-151636439D01*
X59504043Y-151570802D01*
X59704556Y-151464187D01*
X59880542Y-151320657D01*
X60025298Y-151145677D01*
X60133310Y-150945913D01*
X60200464Y-150728974D01*
X60224202Y-150503123D01*
X60203619Y-150276963D01*
X60139501Y-150059108D01*
X60034289Y-149857855D01*
X59927470Y-149725000D01*
X60723414Y-149725000D01*
X60624702Y-149844323D01*
X60516690Y-150044087D01*
X60449536Y-150261026D01*
X60425798Y-150486877D01*
X60446381Y-150713037D01*
X60510499Y-150930892D01*
X60615711Y-151132145D01*
X60758010Y-151309128D01*
X60931974Y-151455102D01*
X61130979Y-151564506D01*
X61347444Y-151633173D01*
X61573124Y-151658487D01*
X61589370Y-151658600D01*
X61600630Y-151658600D01*
X61826641Y-151636439D01*
X62044043Y-151570802D01*
X62244556Y-151464187D01*
X62420542Y-151320657D01*
X62565298Y-151145677D01*
X62673310Y-150945913D01*
X62740464Y-150728974D01*
X62764202Y-150503123D01*
X62743619Y-150276963D01*
X62679501Y-150059108D01*
X62574289Y-149857855D01*
X62431990Y-149680872D01*
X62258026Y-149534898D01*
X62059021Y-149425494D01*
X61842556Y-149356827D01*
X61616876Y-149331513D01*
X61600630Y-149331400D01*
X61589370Y-149331400D01*
X61557589Y-149334516D01*
X64579454Y-146312652D01*
X64524094Y-146441818D01*
X64491459Y-146595351D01*
X64489268Y-146752298D01*
X64517602Y-146906682D01*
X64575384Y-147052622D01*
X64660412Y-147184560D01*
X64769448Y-147297469D01*
X64898337Y-147387050D01*
X65042172Y-147449890D01*
X65195473Y-147483595D01*
X65352402Y-147486883D01*
X65506980Y-147459626D01*
X65653320Y-147402865D01*
X65785848Y-147318760D01*
X65899516Y-147210515D01*
X65989994Y-147082254D01*
X66040660Y-146968455D01*
X66073984Y-147052622D01*
X66159012Y-147184560D01*
X66268048Y-147297469D01*
X66396937Y-147387050D01*
X66540772Y-147449890D01*
X66694073Y-147483595D01*
X66851002Y-147486883D01*
X67005580Y-147459626D01*
X67151920Y-147402865D01*
X67284448Y-147318760D01*
X67398116Y-147210515D01*
X67488594Y-147082254D01*
X67552436Y-146938862D01*
X67587211Y-146785800D01*
X67589715Y-146606519D01*
X67559227Y-146452545D01*
X67499413Y-146307426D01*
X67412551Y-146176689D01*
X67301950Y-146065312D01*
X67171822Y-145977540D01*
X67027124Y-145916715D01*
X66873367Y-145885153D01*
X66716408Y-145884057D01*
X66562226Y-145913469D01*
X66416693Y-145972268D01*
X66285352Y-146058215D01*
X66173206Y-146168036D01*
X66084528Y-146297548D01*
X66039777Y-146401959D01*
X66000813Y-146307426D01*
X65913951Y-146176689D01*
X65803350Y-146065312D01*
X65673222Y-145977540D01*
X65528524Y-145916715D01*
X65374767Y-145885153D01*
X65217808Y-145884057D01*
X65063626Y-145913469D01*
X64921022Y-145971084D01*
X66681781Y-144210325D01*
X66728963Y-144211314D01*
X66864155Y-144187476D01*
X66992141Y-144137833D01*
X67108048Y-144064277D01*
X67207460Y-143969608D01*
X67286591Y-143857432D01*
X67342427Y-143732023D01*
X67372841Y-143598158D01*
X67375030Y-143441361D01*
X67348366Y-143306699D01*
X67296054Y-143179780D01*
X67220086Y-143065439D01*
X67175000Y-143020036D01*
X67175000Y-132364798D01*
X69440592Y-130099206D01*
X69473423Y-130050071D01*
X69488731Y-130013112D01*
X69585632Y-130326148D01*
X69699888Y-131413221D01*
X69700000Y-131445234D01*
X69700000Y-150487665D01*
X69593310Y-151575772D01*
X69279433Y-152615382D01*
X68769607Y-153574226D01*
X68083249Y-154415784D01*
X67246502Y-155108000D01*
X66291248Y-155624504D01*
X65253851Y-155945632D01*
X64166778Y-156059888D01*
X64134477Y-156060001D01*
X64134476Y-156060001D01*
X64130059Y-156060016D01*
X64123527Y-156060678D01*
X64116971Y-156060633D01*
X64114887Y-156060837D01*
X63991636Y-156073792D01*
X63978349Y-156076519D01*
X63964965Y-156079073D01*
X63962960Y-156079678D01*
X63844572Y-156116325D01*
X63832021Y-156121601D01*
X63819434Y-156126687D01*
X63817584Y-156127670D01*
X63708570Y-156186614D01*
X63697319Y-156194202D01*
X63685922Y-156201661D01*
X63684299Y-156202984D01*
X63588810Y-156281980D01*
X63579258Y-156291598D01*
X63569516Y-156301139D01*
X63568181Y-156302753D01*
X63489854Y-156398791D01*
X63482309Y-156410145D01*
X63474649Y-156421334D01*
X63473653Y-156423175D01*
X63415471Y-156532599D01*
X63410277Y-156545199D01*
X63404935Y-156557665D01*
X63404315Y-156559665D01*
X63368495Y-156678306D01*
X63365851Y-156691654D01*
X63363028Y-156704942D01*
X63362809Y-156707020D01*
X63362809Y-156707023D01*
X63362809Y-156707025D01*
X63350716Y-156830363D01*
X63350716Y-156836910D01*
X63350009Y-156843414D01*
X63350001Y-156845508D01*
X63350016Y-156849941D01*
X63350678Y-156856472D01*
X63350633Y-156863029D01*
X63350837Y-156865113D01*
X63363792Y-156988364D01*
X63366520Y-157001656D01*
X63369073Y-157015035D01*
X63369678Y-157017040D01*
X63406325Y-157135428D01*
X63411601Y-157147978D01*
X63416687Y-157160566D01*
X63417670Y-157162415D01*
X63476614Y-157271430D01*
X63484213Y-157282697D01*
X63491661Y-157294077D01*
X63492984Y-157295700D01*
X63571980Y-157391190D01*
X63581634Y-157400777D01*
X63591139Y-157410483D01*
X63592752Y-157411818D01*
X63688791Y-157490146D01*
X63700104Y-157497662D01*
X63711333Y-157505351D01*
X63713175Y-157506347D01*
X63822599Y-157564529D01*
X63835171Y-157569710D01*
X63847665Y-157575065D01*
X63849665Y-157575685D01*
X63968306Y-157611505D01*
X63981654Y-157614148D01*
X63994942Y-157616972D01*
X63997021Y-157617190D01*
X63997023Y-157617191D01*
X63997024Y-157617191D01*
X64120363Y-157629284D01*
X64126655Y-157629284D01*
X64132906Y-157629985D01*
X64135000Y-157630000D01*
X66667665Y-157630000D01*
X67262418Y-157688315D01*
X67827463Y-157858913D01*
X68348611Y-158136012D01*
X68806013Y-158509060D01*
X69182241Y-158963842D01*
X69462972Y-159483042D01*
X69637510Y-160046886D01*
X69699950Y-160640953D01*
X69700000Y-160655233D01*
X69700000Y-172077665D01*
M02*
