M48
;DRILL file {kicad (2014-10-11 BZR 5175)-product} date Fri 31 Oct 2014 19:34:36 GMT
;FORMAT={-:-/ absolute / inch / decimal}
FMAT,2
INCH,TZ
T1C0.016
T2C0.024
T3C0.032
T4C0.040
T5C0.071
%
G90
G05
M72
T1
X1.275Y-6.775
X1.278Y-6.3213
X1.5Y-6.35
X1.5Y-6.75
X1.7Y-6.725
X1.75Y-6.35
X1.75Y-6.75
X1.775Y-5.825
X1.8Y-6.375
X1.9Y-5.85
X1.975Y-6.325
X1.975Y-6.775
X2.025Y-5.65
X2.025Y-5.85
X2.2Y-6.8
X2.25Y-5.05
X2.375Y-5.25
X2.4Y-6.175
X2.425Y-5.75
X2.475Y-5.125
X2.6Y-5.925
X2.625Y-5.65
T2
X2.5705Y-5.775
X2.6295Y-5.775
T3
X2.05Y-6.4539
X2.05Y-6.6461
T4
X2.025Y-5.925
X2.025Y-6.025
X2.125Y-5.925
X2.125Y-6.025
X2.225Y-5.925
X2.225Y-6.025
X2.25Y-6.35
X2.25Y-6.45
X2.25Y-6.55
X2.25Y-6.65
X2.25Y-6.75
X2.325Y-5.925
X2.325Y-6.025
X2.35Y-6.35
X2.35Y-6.45
X2.35Y-6.55
X2.35Y-6.65
X2.35Y-6.75
X2.425Y-5.925
X2.425Y-6.025
X2.5Y-6.45
X2.5Y-6.55
X2.5Y-6.65
X2.6Y-6.45
X2.6Y-6.55
X2.6Y-6.65
T5
X0.9075Y-6.4614
X0.9075Y-6.6386
T0
M30
